<svg xmlns="http://www.w3.org/2000/svg">
    <defs>
        <path id="stumbleupon-path-1" d="M0,0.0749333333 L31.9250667,0.0749333333 L31.9250667,31.984 L0,31.984" />
    </defs>
    <symbol viewBox="0 0 24 24" id="icon-add">
        <path d="M19 13h-6v6h-2v-6H5v-2h6V5h2v6h6v2z" />
    </symbol>
    <symbol viewBox="0 0 20 19" id="icon-admin-brush">
        <path d="M5 12C3.34 12 2 13.34 2 15C2 16.31 0.84 17 0 17C0.92 18.22 2.49 19 4 19C6.21 19 8 17.21 8 15C8 13.34 6.66 12 5 12ZM18.71 2.63L17.37 1.29C16.98 0.899999 16.35 0.899999 15.96 1.29L7 10.25L9.75 13L18.71 4.04C19.1 3.65 19.1 3.02 18.71 2.63Z" fill="#3E67F8" />
    </symbol>
    <symbol viewBox="0 0 12 8" id="icon-admin-close">
        <path d="M5.28997 0.70998L0.699971 5.29998C0.309971 5.68998 0.309971 6.31998 0.699971 6.70998C1.08997 7.09998 1.71997 7.09998 2.10997 6.70998L5.99997 2.82998L9.87997 6.70998C10.27 7.09998 10.9 7.09998 11.29 6.70998C11.68 6.31998 11.68 5.68998 11.29 5.29998L6.69997 0.70998C6.31997 0.31998 5.67997 0.31998 5.28997 0.70998Z" fill="#5E637A" />
    </symbol>
    <symbol viewBox="0 0 19 19" id="icon-admin-edit">
        <path d="M0 15.46V18.5C0 18.78 0.22 19 0.5 19H3.54C3.67 19 3.8 18.95 3.89 18.85L14.81 7.94L11.06 4.19L0.15 15.1C0.0500001 15.2 0 15.32 0 15.46ZM17.71 5.04C18.1 4.65 18.1 4.02 17.71 3.63L15.37 1.29C14.98 0.899999 14.35 0.899999 13.96 1.29L12.13 3.12L15.88 6.87L17.71 5.04Z" fill="#3E67F8" />
    </symbol>
    <symbol viewBox="0 0 18 18" id="icon-admin-link">
        <path d="M15 16H3C2.45 16 2 15.55 2 15V3C2 2.45 2.45 2 3 2H8C8.55 2 9 1.55 9 1C9 0.45 8.55 0 8 0H2C0.89 0 0 0.9 0 2V16C0 17.1 0.9 18 2 18H16C17.1 18 18 17.1 18 16V10C18 9.45 17.55 9 17 9C16.45 9 16 9.45 16 10V15C16 15.55 15.55 16 15 16ZM11 1C11 1.55 11.45 2 12 2H14.59L5.46 11.13C5.07 11.52 5.07 12.15 5.46 12.54C5.85 12.93 6.48 12.93 6.87 12.54L16 3.41V6C16 6.55 16.45 7 17 7C17.55 7 18 6.55 18 6V0H12C11.45 0 11 0.45 11 1Z" fill="#3E67F8" />
    </symbol>
    <symbol viewBox="0 0 20 20" id="icon-admin-tooltip">
        <path d="M10 0C4.48 0 0 4.48 0 10C0 15.52 4.48 20 10 20C15.52 20 20 15.52 20 10C20 4.48 15.52 0 10 0ZM10 15C9.45 15 9 14.55 9 14V10C9 9.45 9.45 9 10 9C10.55 9 11 9.45 11 10V14C11 14.55 10.55 15 10 15ZM11 7H9V5H11V7Z" fill="#5E637A" />
    </symbol>
    <symbol viewBox="0 0 36 36" id="icon-arrow-down">
        <path d="M16.5 6v18.26l-8.38-8.38-2.12 2.12 12 12 12-12-2.12-2.12-8.38 8.38v-18.26h-3z" />
    </symbol>
    <symbol viewBox="0 0 12 8" id="icon-chevron-down">
        <path d="M6 6.174l5.313-4.96.23-.214.457.427-.23.214-5.51 5.146L6.03 7 6 6.972 5.97 7l-.23-.214L.23 1.64 0 1.428.458 1l.23.214L6 6.174z" stroke-linecap="square" fill-rule="evenodd" />
    </symbol>
    <symbol viewBox="0 0 24 24" id="icon-chevron-left">
        <path d="M15.41 7.41L14 6l-6 6 6 6 1.41-1.41L10.83 12z" />
    </symbol>
    <symbol viewBox="0 0 24 24" id="icon-chevron-right">
        <path d="M10 6L8.59 7.41 13.17 12l-4.58 4.59L10 18l6-6z" />
    </symbol>
    <symbol viewBox="0 -120 512.008 1024.016" id="icon-long-arrow-left">
        <g>
            <g>
                <path d="M480.004,352.004H54.628l68.688-68.688l-22.624-22.624l-96,96c-6.256,6.256-6.256,16.368,0,22.624l96,96l22.624-22.624
                    l-68.688-68.688h425.376V352.004z"/>
            </g>
        </g>
    </symbol>
    <symbol viewBox="0 -195 512.008 680" id="icon-long-arrow-right">
        <g>
            <g>
                <path d="M507.316,132.692l-96-96l-22.624,22.624l68.688,68.688H32.004v32H457.38l-68.688,68.688l22.624,22.624l96-96
                    C513.572,149.06,513.572,138.948,507.316,132.692z"/>
            </g>
        </g>
    </symbol>
     <symbol viewBox="0 0 227.216 227.216" id="icon-share">
        <path d="M175.897,141.476c-13.249,0-25.11,6.044-32.98,15.518l-51.194-29.066c1.592-4.48,2.467-9.297,2.467-14.317
            c0-5.019-0.875-9.836-2.467-14.316l51.19-29.073c7.869,9.477,19.732,15.523,32.982,15.523c23.634,0,42.862-19.235,42.862-42.879
            C218.759,19.229,199.531,0,175.897,0C152.26,0,133.03,19.229,133.03,42.865c0,5.02,0.874,9.838,2.467,14.319L84.304,86.258
            c-7.869-9.472-19.729-15.514-32.975-15.514c-23.64,0-42.873,19.229-42.873,42.866c0,23.636,19.233,42.865,42.873,42.865
            c13.246,0,25.105-6.042,32.974-15.513l51.194,29.067c-1.593,4.481-2.468,9.3-2.468,14.321c0,23.636,19.23,42.865,42.867,42.865
            c23.634,0,42.862-19.23,42.862-42.865C218.759,160.71,199.531,141.476,175.897,141.476z M175.897,15
            c15.363,0,27.862,12.5,27.862,27.865c0,15.373-12.499,27.879-27.862,27.879c-15.366,0-27.867-12.506-27.867-27.879
            C148.03,27.5,160.531,15,175.897,15z M51.33,141.476c-15.369,0-27.873-12.501-27.873-27.865c0-15.366,12.504-27.866,27.873-27.866
            c15.363,0,27.861,12.5,27.861,27.866C79.191,128.975,66.692,141.476,51.33,141.476z M175.897,212.216
            c-15.366,0-27.867-12.501-27.867-27.865c0-15.37,12.501-27.875,27.867-27.875c15.363,0,27.862,12.505,27.862,27.875
            C203.759,199.715,191.26,212.216,175.897,212.216z"></path>
    </symbol>
    <symbol viewBox="0 0 512 512" id="icon-refresh">
        <path d="M483.515 28.485L431.35 80.65C386.475 35.767 324.485 8 256 8 123.228 8 14.824 112.338 8.31 243.493 7.971 250.311 13.475 256 20.301 256h28.045c6.353 0 11.613-4.952 11.973-11.294C66.161 141.649 151.453 60 256 60c54.163 0 103.157 21.923 138.614 57.386l-54.128 54.129c-7.56 7.56-2.206 20.485 8.485 20.485H492c6.627 0 12-5.373 12-12V36.971c0-10.691-12.926-16.045-20.485-8.486zM491.699 256h-28.045c-6.353 0-11.613 4.952-11.973 11.294C445.839 370.351 360.547 452 256 452c-54.163 0-103.157-21.923-138.614-57.386l54.128-54.129c7.56-7.56 2.206-20.485-8.485-20.485H20c-6.627 0-12 5.373-12 12v143.029c0 10.691 12.926 16.045 20.485 8.485L80.65 431.35C125.525 476.233 187.516 504 256 504c132.773 0 241.176-104.338 247.69-235.493.339-6.818-5.165-12.507-11.991-12.507z" class=""></path>
    </symbol>
    <symbol viewBox="0 0 24 24" id="icon-close">
        <path d="M19 6.41L17.59 5 12 10.59 6.41 5 5 6.41 10.59 12 5 17.59 6.41 19 12 13.41 17.59 19 19 17.59 13.41 12z" />
    </symbol>
    <symbol viewBox="0 0 448 512" id="icon-double-arrow-right">
        <path d="M57.7 38.1l209.4 209.4c4.7 4.7 4.7 12.3 0 17L57.7 473.9c-4.7 4.7-12.3 4.7-17 0l-19.8-19.8c-4.7-4.7-4.7-12.3 0-17L201.6 256 20.9 74.9c-4.7-4.7-4.7-12.3 0-17l19.8-19.8c4.7-4.7 12.3-4.7 17 0zm143 0l-19.8 19.8c-4.7 4.7-4.7 12.3 0 17L361.6 256 180.9 437.1c-4.7 4.7-4.7 12.3 0 17l19.8 19.8c4.7 4.7 12.3 4.7 17 0l209.4-209.4c4.7-4.7 4.7-12.3 0-17L217.7 38.1c-4.7-4.7-12.3-4.7-17 0z">
        </path>
    </symbol>
    <symbol viewBox="0 0 31.479 31.479" id="icon-arrow-top">
        <path d="M26.477,10.274c0.444,0.444,0.444,1.143,0,1.587c-0.429,0.429-1.143,0.429-1.571,0l-8.047-8.047
    v26.555c0,0.619-0.492,1.111-1.111,1.111c-0.619,0-1.127-0.492-1.127-1.111V3.813l-8.031,8.047c-0.444,0.429-1.159,0.429-1.587,0
    c-0.444-0.444-0.444-1.143,0-1.587l9.952-9.952c0.429-0.429,1.143-0.429,1.571,0L26.477,10.274z"/>
    </symbol>
    <symbol viewBox="0 0 48 48" id="icon-filter">
        <g>
            <path d="M6,48c-0.552,0-1-0.447-1-1v-7c0-0.553,0.448-1,1-1s1,0.447,1,1v7C7,47.553,6.552,48,6,48z"></path>
            <path d="M6,31c-0.552,0-1-0.447-1-1V1c0-0.553,0.448-1,1-1s1,0.447,1,1v29C7,30.553,6.552,31,6,31z"></path>
            <g>
                <path d="M6,41c-3.309,0-6-2.691-6-6s2.691-6,6-6s6,2.691,6,6S9.309,41,6,41z M6,31c-2.206,0-4,1.794-4,4s1.794,4,4,4s4-1.794,4-4    S8.206,31,6,31z"></path>
                <path d="M42,48c-0.552,0-1-0.447-1-1V26c0-0.553,0.448-1,1-1s1,0.447,1,1v21C43,47.553,42.552,48,42,48z"></path>
                <path d="M42,17c-0.552,0-1-0.447-1-1V1c0-0.553,0.448-1,1-1s1,0.447,1,1v15C43,16.553,42.552,17,42,17z"></path>
                <path d="M42,27c-3.309,0-6-2.691-6-6s2.691-6,6-6s6,2.691,6,6S45.309,27,42,27z M42,17c-2.206,0-4,1.794-4,4s1.794,4,4,4    s4-1.794,4-4S44.206,17,42,17z"></path>
                <path d="M24,48c-0.552,0-1-0.447-1-1V21c0-0.553,0.448-1,1-1s1,0.447,1,1v26C25,47.553,24.552,48,24,48z"></path>
                <path d="M24,12c-0.552,0-1-0.447-1-1V1c0-0.553,0.448-1,1-1s1,0.447,1,1v10C25,11.553,24.552,12,24,12z"></path>
                <path d="M24,22c-3.309,0-6-2.691-6-6s2.691-6,6-6c3.309,0,6,2.691,6,6S27.309,22,24,22z M24,12c-2.206,0-4,1.794-4,4s1.794,4,4,4    s4-1.794,4-4S26.206,12,24,12z"></path>
            </g>
        </g>
    </symbol>

    <symbol viewBox="0 0 26 26" id="icon-menu-grid">
        <g><g><g>
        <circle cx="13" cy="13" width="5" height="5" r="4"></circle>
        <rect x="12" y="12" width="2" height="2" fill="#fff"></rect>
        <circle cx="4" cy="4" width="5" height="5" r="4"></circle>
        <rect x="3" y="3" width="2" height="2" fill="#fff"></rect>
        <circle cx="13" cy="22" width="5" height="5" r="4"></circle>
        <rect x="12" y="21" width="2" height="2" fill="#fff"></rect>
        <circle cx="4" cy="13" width="5" height="5" r="4"></circle>
        <rect x="3" y="12" width="2" height="2" fill="#fff"></rect>
        <circle cx="4" cy="22" width="5" height="5" r="4"></circle>
        <rect x="3" y="21" width="2" height="2" fill="#fff"></rect>
        <circle cx="22" cy="4" width="5" height="5" r="4"></circle>
        <rect x="21" y="3" width="2" height="2" fill="#fff"></rect>
        <circle cx="13" cy="4" width="5" height="5" r="4"></circle>
        <rect x="12" y="3" width="2" height="2" fill="#fff"></rect>
        <circle cx="22" cy="13" width="5" height="5" r="4"></circle>
        <rect x="21" y="12" width="2" height="2" fill="#fff"></rect>
        <circle cx="22" cy="22" width="5" height="5" r="4"></circle>
        <rect x="21" y="21" width="2" height="2" fill="#fff"></rect>
        </g></g>
        </g>
    </symbol>
    <symbol viewBox="0 0 24 24" id="icon-gift-card">
        <path d="m22.5 12h-21c-.827 0-1.5-.673-1.5-1.5v-4c0-.827.673-1.5 1.5-1.5h21c.827 0 1.5.673 1.5 1.5v4c0 .827-.673 1.5-1.5 1.5zm-21-6c-.275 0-.5.224-.5.5v4c0 .276.225.5.5.5h21c.275 0 .5-.224.5-.5v-4c0-.276-.225-.5-.5-.5z"/><path d="m19.5 24h-15c-1.379 0-2.5-1.122-2.5-2.5v-10c0-.276.224-.5.5-.5s.5.224.5.5v10c0 .827.673 1.5 1.5 1.5h15c.827 0 1.5-.673 1.5-1.5v-10c0-.276.224-.5.5-.5s.5.224.5.5v10c0 1.378-1.121 2.5-2.5 2.5z"/><path d="m12 24c-.276 0-.5-.224-.5-.5v-12c0-.276.224-.5.5-.5s.5.224.5.5v12c0 .276-.224.5-.5.5z"/><path d="m12 6c-.036 0-.072-.004-.108-.012-.63-.14-3.817-.879-4.659-1.721-.473-.471-.733-1.099-.733-1.767s.26-1.296.732-1.768c.975-.975 2.561-.975 3.535 0 .842.841 1.581 4.029 1.721 4.66.037.167-.014.341-.135.461-.094.095-.222.147-.353.147zm-3-4.999c-.384 0-.769.146-1.061.438-.283.284-.439.66-.439 1.061s.156.777.439 1.061c.389.389 2.015.914 3.385 1.264-.351-1.37-.875-2.996-1.264-3.385-.291-.293-.676-.439-1.06-.439z"/><path d="m12 6c-.131 0-.259-.052-.354-.146-.121-.121-.172-.295-.135-.461.14-.631.879-3.818 1.721-4.66.975-.976 2.561-.974 3.535 0 .473.471.733 1.099.733 1.767s-.26 1.296-.732 1.768c-.842.842-4.029 1.581-4.659 1.721-.037.007-.073.011-.109.011zm3-4.999c-.384 0-.769.146-1.061.438-.389.389-.913 2.015-1.264 3.385 1.37-.35 2.996-.875 3.385-1.264.284-.283.44-.659.44-1.06s-.156-.777-.439-1.061c-.292-.292-.677-.438-1.061-.438zm-1.414.085h.01z"/>
    </symbol>
    <symbol viewBox="0 0 512 512" id="icon-gift">
        <path fill="currentColor" d="M32 448c0 17.7 14.3 32 32 32h160V320H32v128zm256 32h160c17.7 0 32-14.3 32-32V320H288v160zm192-320h-42.1c6.2-12.1 10.1-25.5 10.1-40 0-48.5-39.5-88-88-88-41.6 0-68.5 21.3-103 68.3-34.5-47-61.4-68.3-103-68.3-48.5 0-88 39.5-88 88 0 14.5 3.8 27.9 10.1 40H32c-17.7 0-32 14.3-32 32v80c0 8.8 7.2 16 16 16h480c8.8 0 16-7.2 16-16v-80c0-17.7-14.3-32-32-32zm-326.1 0c-22.1 0-40-17.9-40-40s17.9-40 40-40c19.9 0 34.6 3.3 86.1 80h-86.1zm206.1 0h-86.1c51.4-76.5 65.7-80 86.1-80 22.1 0 40 17.9 40 40s-17.9 40-40 40z" class=""></path>
    </symbol>
    <symbol viewBox="0 0 640 512" id="icon-truck">
        <path d="M624 352h-16V243.9c0-12.7-5.1-24.9-14.1-33.9L494 110.1c-9-9-21.2-14.1-33.9-14.1H416V48c0-26.5-21.5-48-48-48H112C85.5 0 64 21.5 64 48v48H8c-4.4 0-8 3.6-8 8v16c0 4.4 3.6 8 8 8h272c4.4 0 8 3.6 8 8v16c0 4.4-3.6 8-8 8H40c-4.4 0-8 3.6-8 8v16c0 4.4 3.6 8 8 8h208c4.4 0 8 3.6 8 8v16c0 4.4-3.6 8-8 8H8c-4.4 0-8 3.6-8 8v16c0 4.4 3.6 8 8 8h208c4.4 0 8 3.6 8 8v16c0 4.4-3.6 8-8 8H64v128c0 53 43 96 96 96s96-43 96-96h128c0 53 43 96 96 96s96-43 96-96h48c8.8 0 16-7.2 16-16v-32c0-8.8-7.2-16-16-16zM160 464c-26.5 0-48-21.5-48-48s21.5-48 48-48 48 21.5 48 48-21.5 48-48 48zm320 0c-26.5 0-48-21.5-48-48s21.5-48 48-48 48 21.5 48 48-21.5 48-48 48zm80-208H416V144h44.1l99.9 99.9V256z" class=""></path>
    </symbol>
    <symbol viewBox="0 0 384 512" id="icon-award">
        <path d="M97.12 362.63c-8.69-8.69-4.16-6.24-25.12-11.85-9.51-2.55-17.87-7.45-25.43-13.32L1.2 448.7c-4.39 10.77 3.81 22.47 15.43 22.03l52.69-2.01L105.56 507c8 8.44 22.04 5.81 26.43-4.96l52.05-127.62c-10.84 6.04-22.87 9.58-35.31 9.58-19.5 0-37.82-7.59-51.61-21.37zM382.8 448.7l-45.37-111.24c-7.56 5.88-15.92 10.77-25.43 13.32-21.07 5.64-16.45 3.18-25.12 11.85-13.79 13.78-32.12 21.37-51.62 21.37-12.44 0-24.47-3.55-35.31-9.58L252 502.04c4.39 10.77 18.44 13.4 26.43 4.96l36.25-38.28 52.69 2.01c11.62.44 19.82-11.27 15.43-22.03zM263 340c15.28-15.55 17.03-14.21 38.79-20.14 13.89-3.79 24.75-14.84 28.47-28.98 7.48-28.4 5.54-24.97 25.95-45.75 10.17-10.35 14.14-25.44 10.42-39.58-7.47-28.38-7.48-24.42 0-52.83 3.72-14.14-.25-29.23-10.42-39.58-20.41-20.78-18.47-17.36-25.95-45.75-3.72-14.14-14.58-25.19-28.47-28.98-27.88-7.61-24.52-5.62-44.95-26.41-10.17-10.35-25-14.4-38.89-10.61-27.87 7.6-23.98 7.61-51.9 0-13.89-3.79-28.72.25-38.89 10.61-20.41 20.78-17.05 18.8-44.94 26.41-13.89 3.79-24.75 14.84-28.47 28.98-7.47 28.39-5.54 24.97-25.95 45.75-10.17 10.35-14.15 25.44-10.42 39.58 7.47 28.36 7.48 24.4 0 52.82-3.72 14.14.25 29.23 10.42 39.59 20.41 20.78 18.47 17.35 25.95 45.75 3.72 14.14 14.58 25.19 28.47 28.98C104.6 325.96 106.27 325 121 340c13.23 13.47 33.84 15.88 49.74 5.82a39.676 39.676 0 0 1 42.53 0c15.89 10.06 36.5 7.65 49.73-5.82zM97.66 175.96c0-53.03 42.24-96.02 94.34-96.02s94.34 42.99 94.34 96.02-42.24 96.02-94.34 96.02-94.34-42.99-94.34-96.02z" class=""></path>
    </symbol>
    <symbol viewBox="0 0 576 512" id="icon-trophy">
        <path d="M552 64H448V24c0-13.3-10.7-24-24-24H152c-13.3 0-24 10.7-24 24v40H24C10.7 64 0 74.7 0 88v56c0 66.5 77.9 131.7 171.9 142.4C203.3 338.5 240 360 240 360v72h-48c-35.3 0-64 20.7-64 56v12c0 6.6 5.4 12 12 12h296c6.6 0 12-5.4 12-12v-12c0-35.3-28.7-56-64-56h-48v-72s36.7-21.5 68.1-73.6C498.4 275.6 576 210.3 576 144V88c0-13.3-10.7-24-24-24zM64 144v-16h64.2c1 32.6 5.8 61.2 12.8 86.2-47.5-16.4-77-49.9-77-70.2zm448 0c0 20.2-29.4 53.8-77 70.2 7-25 11.8-53.6 12.8-86.2H512v16zm-127.3 4.7l-39.6 38.6 9.4 54.6c1.7 9.8-8.7 17.2-17.4 12.6l-49-25.8-49 25.8c-8.8 4.6-19.1-2.9-17.4-12.6l9.4-54.6-39.6-38.6c-7.1-6.9-3.2-19 6.7-20.5l54.8-8 24.5-49.6c4.4-8.9 17.1-8.9 21.5 0l24.5 49.6 54.8 8c9.6 1.5 13.5 13.6 6.4 20.5z" class=""></path>
    </symbol>
    <symbol viewBox="0 0 536 512" id="icon-quality">
        <defs>           
            <linearGradient id="logo-gradient" x1="50%" y1="0%" x2="50%" y2="100%">
                <stop offset="0%" stop-color="#6423d1"></stop>              
                <stop offset="100%" stop-color="#a215e1"></stop>
            </linearGradient>       
        </defs>
        <path fill="url('#logo-gradient')" d="M508.55 171.51L362.18 150.2 296.77 17.81C290.89 5.98 279.42 0 267.95 0c-11.4 0-22.79 5.9-28.69 17.81l-65.43 132.38-146.38 21.29c-26.25 3.8-36.77 36.09-17.74 54.59l105.89 103-25.06 145.48C86.98 495.33 103.57 512 122.15 512c4.93 0 10-1.17 14.87-3.75l130.95-68.68 130.94 68.7c4.86 2.55 9.92 3.71 14.83 3.71 18.6 0 35.22-16.61 31.66-37.4l-25.03-145.49 105.91-102.98c19.04-18.5 8.52-50.8-17.73-54.6zm-121.74 123.2l-18.12 17.62 4.28 24.88 19.52 113.45-102.13-53.59-22.38-11.74.03-317.19 51.03 103.29 11.18 22.63 25.01 3.64 114.23 16.63-82.65 80.38z" class=""></path>
    </symbol>
    <symbol viewBox="0 0 640 512" id="icon-warehouse">
        <defs>
            <linearGradient id="logo-gradient" x1="50%" y1="0%" x2="50%" y2="100%">
                <stop offset="0%" stop-color="#6423d1"></stop>
            </linearGradient>
        </defs>
        <path fill="url('#logo-gradient')" d="M504 352H136.4c-4.4 0-8 3.6-8 8l-.1 48c0 4.4 3.6 8 8 8H504c4.4 0 8-3.6 8-8v-48c0-4.4-3.6-8-8-8zm0 96H136.1c-4.4 0-8 3.6-8 8l-.1 48c0 4.4 3.6 8 8 8h368c4.4 0 8-3.6 8-8v-48c0-4.4-3.6-8-8-8zm0-192H136.6c-4.4 0-8 3.6-8 8l-.1 48c0 4.4 3.6 8 8 8H504c4.4 0 8-3.6 8-8v-48c0-4.4-3.6-8-8-8zm106.5-139L338.4 3.7a48.15 48.15 0 0 0-36.9 0L29.5 117C11.7 124.5 0 141.9 0 161.3V504c0 4.4 3.6 8 8 8h80c4.4 0 8-3.6 8-8V256c0-17.6 14.6-32 32.6-32h382.8c18 0 32.6 14.4 32.6 32v248c0 4.4 3.6 8 8 8h80c4.4 0 8-3.6 8-8V161.3c0-19.4-11.7-36.8-29.5-44.3z" class=""></path>
    </symbol>
    <symbol viewBox="0 0 640 512" id="icon-truck2">
        <defs>
            <linearGradient id="logo-gradient" x1="50%" y1="0%" x2="50%" y2="100%">
                <stop offset="0%" stop-color="#6423d1"></stop>
                <stop offset="100%" stop-color="#a215e1"></stop>
            </linearGradient>
        </defs>
        <path fill="url('#logo-gradient')" d="M624 352h-16V243.9c0-12.7-5.1-24.9-14.1-33.9L494 110.1c-9-9-21.2-14.1-33.9-14.1H416V48c0-26.5-21.5-48-48-48H112C85.5 0 64 21.5 64 48v48H8c-4.4 0-8 3.6-8 8v16c0 4.4 3.6 8 8 8h272c4.4 0 8 3.6 8 8v16c0 4.4-3.6 8-8 8H40c-4.4 0-8 3.6-8 8v16c0 4.4 3.6 8 8 8h208c4.4 0 8 3.6 8 8v16c0 4.4-3.6 8-8 8H8c-4.4 0-8 3.6-8 8v16c0 4.4 3.6 8 8 8h208c4.4 0 8 3.6 8 8v16c0 4.4-3.6 8-8 8H64v128c0 53 43 96 96 96s96-43 96-96h128c0 53 43 96 96 96s96-43 96-96h48c8.8 0 16-7.2 16-16v-32c0-8.8-7.2-16-16-16zM160 464c-26.5 0-48-21.5-48-48s21.5-48 48-48 48 21.5 48 48-21.5 48-48 48zm320 0c-26.5 0-48-21.5-48-48s21.5-48 48-48 48 21.5 48 48-21.5 48-48 48zm80-208H416V144h44.1l99.9 99.9V256z" class=""></path>
    </symbol>
    <symbol viewBox="0 0 512 512" id="icon-secure">
        <defs>
            <linearGradient id="logo-gradient" x1="50%" y1="0%" x2="50%" y2="100%">
                <stop offset="0%" stop-color="#6423d1"></stop>
                <stop offset="100%" stop-color="#a215e1"></stop>
            </linearGradient>
        </defs>
        <path fill="url('#logo-gradient')" d="M466.5 83.7l-192-80a48.15 48.15 0 0 0-36.9 0l-192 80C27.7 91.1 16 108.6 16 128c0 198.5 114.5 335.7 221.5 380.3 11.8 4.9 25.1 4.9 36.9 0C360.1 472.6 496 349.3 496 128c0-19.4-11.7-36.9-29.5-44.3zM256.1 446.3l-.1-381 175.9 73.3c-3.3 151.4-82.1 261.1-175.8 307.7z" class=""></path>
    </symbol>
    <symbol viewBox="0 0 512 512" id="icon-question">
        <defs>
            <linearGradient id="logo-gradient" x1="50%" y1="0%" x2="50%" y2="100%">
                <stop offset="0%" stop-color="#6423d1"></stop>
                <stop offset="100%" stop-color="#a215e1"></stop>
            </linearGradient>
        </defs>
        <path fill="url('#logo-gradient')" d="M504 256c0 136.997-111.043 248-248 248S8 392.997 8 256C8 119.083 119.043 8 256 8s248 111.083 248 248zM262.655 90c-54.497 0-89.255 22.957-116.549 63.758-3.536 5.286-2.353 12.415 2.715 16.258l34.699 26.31c5.205 3.947 12.621 3.008 16.665-2.122 17.864-22.658 30.113-35.797 57.303-35.797 20.429 0 45.698 13.148 45.698 32.958 0 14.976-12.363 22.667-32.534 33.976C247.128 238.528 216 254.941 216 296v4c0 6.627 5.373 12 12 12h56c6.627 0 12-5.373 12-12v-1.333c0-28.462 83.186-29.647 83.186-106.667 0-58.002-60.165-102-116.531-102zM256 338c-25.365 0-46 20.635-46 46 0 25.364 20.635 46 46 46s46-20.636 46-46c0-25.365-20.635-46-46-46z" class=""></path>
    </symbol>

    <symbol id="icon-location" viewBox="0 0 410.344 410.344">
        <g>
            <g>
                <path d="M205.212,0C119.37,0.088,49.816,69.678,49.772,155.52c0,83.52,143.36,245.36,149.44,252.16 c2.947,3.292,8.005,3.571,11.297,0.624c0.219-0.196,0.427-0.404,0.624-0.624c6.08-6.88,149.44-168.64,149.44-252.16 C360.528,69.709,291.022,0.132,205.212,0z M205.212,390.16c-27.36-32-139.44-166.32-139.44-234.72 C65.772,78.429,128.201,16,205.212,16s139.44,62.429,139.44,139.44C344.652,223.84,232.572,358.32,205.212,390.16z" />
            </g>
        </g>
        <g>
            <g>
                <path d="M208.012,78c-46.524,0.044-84.204,37.796-84.16,84.32c0.044,46.524,37.796,84.204,84.32,84.16 c46.493-0.044,84.16-37.747,84.16-84.24C292.244,115.721,254.531,78.044,208.012,78z M208.012,230.56 c-37.688,0-68.24-30.552-68.24-68.24s30.552-68.24,68.24-68.24s68.24,30.552,68.24,68.24 C276.208,199.99,245.681,230.516,208.012,230.56z" />
            </g>
        </g>
    </symbol>
    <symbol viewBox="0 0 384 512" id="icon-location-1">
        <path fill="currentColor" d="M172.268 501.67C26.97 291.031 0 269.413 0 192 0 85.961 85.961 0 192 0s192 85.961 192 192c0 77.413-26.97 99.031-172.268 309.67-9.535 13.774-29.93 13.773-39.464 0zM192 272c44.183 0 80-35.817 80-80s-35.817-80-80-80-80 35.817-80 80 35.817 80 80 80z" class=""></path>
    </symbol>
    <symbol id="icon-telephone" viewBox="0 0 29.731 29.731">
        <path d="M23.895,29.731c-1.237,0-2.731-0.31-4.374-0.93c-3.602-1.358-7.521-4.042-11.035-7.556 c-3.515-3.515-6.199-7.435-7.558-11.037C-0.307,6.933-0.31,4.245,0.921,3.015c0.177-0.177,0.357-0.367,0.543-0.563 c1.123-1.181,2.392-2.51,4.074-2.45C6.697,0.05,7.82,0.77,8.97,2.201c3.398,4.226,1.866,5.732,0.093,7.478l-0.313,0.31 c-0.29,0.29-0.838,1.633,4.26,6.731c1.664,1.664,3.083,2.882,4.217,3.619c0.714,0.464,1.991,1.166,2.515,0.642l0.315-0.318 c1.744-1.769,3.25-3.296,7.473,0.099c1.431,1.15,2.15,2.272,2.198,3.433c0.069,1.681-1.27,2.953-2.452,4.075 c-0.195,0.186-0.385,0.366-0.562,0.542C26.103,29.424,25.126,29.731,23.895,29.731z M5.418,1C4.223,1,3.144,2.136,2.189,3.141 C1.997,3.343,1.811,3.539,1.628,3.722C0.711,4.638,0.804,7.045,1.864,9.856c1.31,3.472,3.913,7.266,7.33,10.683 c3.416,3.415,7.208,6.018,10.681,7.327c2.811,1.062,5.218,1.152,6.133,0.237c0.183-0.183,0.379-0.369,0.581-0.56 c1.027-0.976,2.192-2.082,2.141-3.309c-0.035-0.843-0.649-1.75-1.825-2.695c-3.519-2.83-4.503-1.831-6.135-0.176l-0.32,0.323 c-0.78,0.781-2.047,0.608-3.767-0.51c-1.193-0.776-2.667-2.038-4.379-3.751c-4.231-4.23-5.584-6.819-4.26-8.146l0.319-0.315 c1.659-1.632,2.66-2.617-0.171-6.138C7.245,1.651,6.339,1.037,5.496,1.001C5.47,1,5.444,1,5.418,1z" />
    </symbol>
    <symbol viewBox="0 0 512 512" id="icon-telephone-1">
        <path fill="currentColor" d="M497.39 361.8l-112-48a24 24 0 0 0-28 6.9l-49.6 60.6A370.66 370.66 0 0 1 130.6 204.11l60.6-49.6a23.94 23.94 0 0 0 6.9-28l-48-112A24.16 24.16 0 0 0 122.6.61l-104 24A24 24 0 0 0 0 48c0 256.5 207.9 464 464 464a24 24 0 0 0 23.4-18.6l24-104a24.29 24.29 0 0 0-14.01-27.6z" class=""></path>
    </symbol>
    <symbol id="icon-envelope" viewBox="0 0 512 512">
        <path fill="currentColor" d="M464 64H48C21.49 64 0 85.49 0 112v288c0 26.51 21.49 48 48 48h416c26.51 0 48-21.49 48-48V112c0-26.51-21.49-48-48-48zm0 48v40.805c-22.422 18.259-58.168 46.651-134.587 106.49-16.841 13.247-50.201 45.072-73.413 44.701-23.208.375-56.579-31.459-73.413-44.701C106.18 199.465 70.425 171.067 48 152.805V112h416zM48 400V214.398c22.914 18.251 55.409 43.862 104.938 82.646 21.857 17.205 60.134 55.186 103.062 54.955 42.717.231 80.509-37.199 103.053-54.947 49.528-38.783 82.032-64.401 104.947-82.653V400H48z" class=""></path>
    </symbol>

    <symbol viewBox="0 0 576 512" id="icon-edit">
        <path d="M417.8 315.5l20-20c3.8-3.8 10.2-1.1 10.2 4.2V464c0 26.5-21.5 48-48 48H48c-26.5 0-48-21.5-48-48V112c0-26.5 21.5-48 48-48h292.3c5.3 0 8 6.5 4.2 10.2l-20 20c-1.1 1.1-2.7 1.8-4.2 1.8H48c-8.8 0-16 7.2-16 16v352c0 8.8 7.2 16 16 16h352c8.8 0 16-7.2 16-16V319.7c0-1.6.6-3.1 1.8-4.2zm145.9-191.2L251.2 436.8l-99.9 11.1c-13.4 1.5-24.7-9.8-23.2-23.2l11.1-99.9L451.7 12.3c16.4-16.4 43-16.4 59.4 0l52.6 52.6c16.4 16.4 16.4 43 0 59.4zm-93.6 48.4L403.4 106 169.8 339.5l-8.3 75.1 75.1-8.3 233.5-233.6zm71-85.2l-52.6-52.6c-3.8-3.8-10.2-4-14.1 0L426 83.3l66.7 66.7 48.4-48.4c3.9-3.8 3.9-10.2 0-14.1z" class=""></path>
    </symbol>
    <symbol viewBox="0 0 448 512" id="user-headset">
        <path d="M320 352h-23.1a174.08 174.08 0 0 1-145.8 0H128A128 128 0 0 0 0 480a32 32 0 0 0 32 32h384a32 32 0 0 0 32-32 128 128 0 0 0-128-128zM48 224a16 16 0 0 0 16-16v-16c0-88.22 71.78-160 160-160s160 71.78 160 160v16a80.09 80.09 0 0 1-80 80h-32a32 32 0 0 0-32-32h-32a32 32 0 0 0 0 64h96a112.14 112.14 0 0 0 112-112v-16C416 86.13 329.87 0 224 0S32 86.13 32 192v16a16 16 0 0 0 16 16zm160 0h32a64 64 0 0 1 55.41 32H304a48.05 48.05 0 0 0 48-48v-16a128 128 0 0 0-256 0c0 40.42 19.1 76 48.35 99.47-.06-1.17-.35-2.28-.35-3.47a64.07 64.07 0 0 1 64-64z" class=""></path>
    </symbol>
    <symbol viewBox="0 0 384 512" id="icon-fire">
        <path d="M216 23.86c0-23.8-30.65-32.77-44.15-13.04C48 191.85 224 200 224 288c0 35.63-29.11 64.46-64.85 63.99-35.17-.45-63.15-29.77-63.15-64.94v-85.51c0-21.7-26.47-32.23-41.43-16.5C27.8 213.16 0 261.33 0 320c0 105.87 86.13 192 192 192s192-86.13 192-192c0-170.29-168-193-168-296.14z"></path>
    </symbol>
    <symbol viewBox="0 0 448 512" id="icon-fire-2">
        <path fill="currentColor" d="M323.56 51.2c-20.8 19.3-39.58 39.59-56.22 59.97C240.08 73.62 206.28 35.53 168 0 69.74 91.17 0 209.96 0 281.6 0 408.85 100.29 512 224 512s224-103.15 224-230.4c0-53.27-51.98-163.14-124.44-230.4zm-19.47 340.65C282.43 407.01 255.72 416 226.86 416 154.71 416 96 368.26 96 290.75c0-38.61 24.31-72.63 72.79-130.75 6.93 7.98 98.83 125.34 98.83 125.34l58.63-66.88c4.14 6.85 7.91 13.55 11.27 19.97 27.35 52.19 15.81 118.97-33.43 153.42z" class=""></path>
    </symbol>
    <symbol id="icon-cart" viewBox="0 0 1024 1024">
        <path class="path1" d="M409.6 1024c-56.464 0-102.4-45.936-102.4-102.4s45.936-102.4 102.4-102.4 102.4 45.936 102.4 102.4-45.936 102.4-102.4 102.4zM409.6 870.4c-28.232 0-51.2 22.968-51.2 51.2s22.968 51.2 51.2 51.2 51.2-22.968 51.2-51.2-22.968-51.2-51.2-51.2z"></path><path class="path2" d="M768 1024c-56.464 0-102.4-45.936-102.4-102.4s45.936-102.4 102.4-102.4 102.4 45.936 102.4 102.4-45.936 102.4-102.4 102.4zM768 870.4c-28.232 0-51.2 22.968-51.2 51.2s22.968 51.2 51.2 51.2 51.2-22.968 51.2-51.2-22.968-51.2-51.2-51.2z"></path><path class="path3" d="M898.021 228.688c-12.859-15.181-32.258-23.888-53.221-23.888h-626.846l-5.085-30.506c-6.72-40.315-43.998-71.894-84.869-71.894h-51.2c-14.138 0-25.6 11.462-25.6 25.6s11.462 25.6 25.6 25.6h51.2c15.722 0 31.781 13.603 34.366 29.112l85.566 513.395c6.718 40.314 43.997 71.893 84.867 71.893h512c14.139 0 25.6-11.461 25.6-25.6s-11.461-25.6-25.6-25.6h-512c-15.722 0-31.781-13.603-34.366-29.11l-12.63-75.784 510.206-44.366c39.69-3.451 75.907-36.938 82.458-76.234l34.366-206.194c3.448-20.677-1.952-41.243-14.813-56.424zM862.331 276.694l-34.366 206.194c-2.699 16.186-20.043 32.221-36.39 33.645l-514.214 44.714-50.874-305.246h618.314c5.968 0 10.995 2.054 14.155 5.782 3.157 3.73 4.357 9.024 3.376 14.912z"></path>
    </symbol>
    <symbol id="icon-wishlist" viewBox="0 0 1024 1024">
        <path class="path1" d="M486.4 972.8c-4.283 0-8.566-1.074-12.434-3.222-4.808-2.67-119.088-66.624-235.122-171.376-68.643-61.97-123.467-125.363-162.944-188.418-50.365-80.443-75.901-160.715-75.901-238.584 0-148.218 120.582-268.8 268.8-268.8 50.173 0 103.462 18.805 150.051 52.952 27.251 19.973 50.442 44.043 67.549 69.606 17.107-25.565 40.299-49.634 67.55-69.606 46.589-34.147 99.878-52.952 150.050-52.952 148.218 0 268.8 120.582 268.8 268.8 0 77.869-25.538 158.141-75.901 238.584-39.478 63.054-94.301 126.446-162.944 188.418-116.034 104.754-230.314 168.706-235.122 171.376-3.867 2.149-8.15 3.222-12.434 3.222zM268.8 153.6c-119.986 0-217.6 97.614-217.6 217.6 0 155.624 120.302 297.077 221.224 388.338 90.131 81.504 181.44 138.658 213.976 158.042 32.536-19.384 123.845-76.538 213.976-158.042 100.922-91.261 221.224-232.714 221.224-388.338 0-119.986-97.616-217.6-217.6-217.6-87.187 0-171.856 71.725-193.314 136.096-3.485 10.453-13.267 17.504-24.286 17.504s-20.802-7.051-24.286-17.504c-21.456-64.371-106.125-136.096-193.314-136.096z"></path>
    </symbol>
    <symbol id="icon-user" viewBox="0 0 1024 1024">
        <path class="path1" d="M486.4 563.2c-155.275 0-281.6-126.325-281.6-281.6s126.325-281.6 281.6-281.6 281.6 126.325 281.6 281.6-126.325 281.6-281.6 281.6zM486.4 51.2c-127.043 0-230.4 103.357-230.4 230.4s103.357 230.4 230.4 230.4c127.042 0 230.4-103.357 230.4-230.4s-103.358-230.4-230.4-230.4z"/><path class="path2" d="M896 1024h-819.2c-42.347 0-76.8-34.451-76.8-76.8 0-3.485 0.712-86.285 62.72-168.96 36.094-48.126 85.514-86.36 146.883-113.634 74.957-33.314 168.085-50.206 276.797-50.206 108.71 0 201.838 16.893 276.797 50.206 61.37 27.275 110.789 65.507 146.883 113.634 62.008 82.675 62.72 165.475 62.72 168.96 0 42.349-34.451 76.8-76.8 76.8zM486.4 665.6c-178.52 0-310.267 48.789-381 141.093-53.011 69.174-54.195 139.904-54.2 140.61 0 14.013 11.485 25.498 25.6 25.498h819.2c14.115 0 25.6-11.485 25.6-25.6-0.006-0.603-1.189-71.333-54.198-140.507-70.734-92.304-202.483-141.093-381.002-141.093z"/>
    </symbol>
    <symbol viewBox="0 0 512 512" id="icon-search">
        <g>
            <g>
                <path d="M225.474,0C101.151,0,0,101.151,0,225.474c0,124.33,101.151,225.474,225.474,225.474
                    c124.33,0,225.474-101.144,225.474-225.474C450.948,101.151,349.804,0,225.474,0z M225.474,409.323
                    c-101.373,0-183.848-82.475-183.848-183.848S124.101,41.626,225.474,41.626s183.848,82.475,183.848,183.848
                    S326.847,409.323,225.474,409.323z"/>
            </g>
        </g>
        <g>
            <g>
                <path d="M505.902,476.472L386.574,357.144c-8.131-8.131-21.299-8.131-29.43,0c-8.131,8.124-8.131,21.306,0,29.43l119.328,119.328
                    c4.065,4.065,9.387,6.098,14.715,6.098c5.321,0,10.649-2.033,14.715-6.098C514.033,497.778,514.033,484.596,505.902,476.472z"/>
            </g>
        </g>
    </symbol>
    <symbol viewBox="0 0 200 200" id="icon-video-product">
        <circle cx="100" cy="100" r="90" fill="none" stroke-width="8"></circle>
        <polygon points="70, 50 70, 145 155, 100"></polygon>
    </symbol>
    <symbol viewBox="0 0 512 512" id="icon-nopicture">
        <path d="M255-1C114.2-1-1,114.2-1,255s115.2,256,256,256s256-115.2,256-256S395.8-1,255-1z M255,16.067
        c63.054,0,120.598,24.764,163.413,65.033l-65.336,64.802L334.36,97.987c-0.853-2.56-4.267-5.12-7.68-5.12H185.027
        c-3.413,0-5.973,1.707-7.68,5.12L156.013,152.6h-48.64c-17.067,0-30.72,13.653-30.72,30.72v168.96
        c0,17.067,13.653,30.72,30.72,30.72h6.653l-34.26,33.981C40.285,374.319,16.067,317.354,16.067,255
        C16.067,123.587,123.587,16.067,255,16.067z M314.733,255c0,33.28-26.453,59.733-59.733,59.733
        c-13.563,0-25.99-4.396-35.957-11.854l84.125-83.438C310.449,229.34,314.733,241.616,314.733,255z M195.267,255
        c0-33.28,26.453-59.733,59.733-59.733c13.665,0,26.174,4.467,36.179,12.028l-84.183,83.495
        C199.613,280.852,195.267,268.487,195.267,255z M303.374,195.199C290.201,184.558,273.399,178.2,255,178.2
        c-42.667,0-76.8,34.133-76.8,76.8c0,18.17,6.206,34.779,16.61,47.877l-63.576,63.057H106.52c-7.68,0-13.653-5.973-13.653-13.653
        V183.32c0-7.68,5.973-13.653,13.653-13.653h54.613c3.413,0,6.827-2.56,7.68-5.12l21.333-54.613h129.707l19.404,49.675
        L303.374,195.199z M206.848,314.974C219.987,325.509,236.703,331.8,255,331.8c42.667,0,76.8-34.133,76.8-76.8
        c0-18.068-6.138-34.592-16.436-47.655l37.988-37.678h49.274c7.68,0,13.653,5.973,13.653,13.653v168.96
        c0,7.68-5.973,13.653-13.653,13.653H155.469L206.848,314.974z M255,493.933c-62.954,0-120.415-24.686-163.208-64.843L138.262,383
        H403.48c17.067,0,30.72-13.653,31.573-30.72V183.32c0-17.067-13.653-30.72-30.72-30.72H370.56l59.865-59.376
        c39.368,42.639,63.509,99.521,63.509,161.776C493.933,386.413,386.413,493.933,255,493.933z"/>
        <path d="M383,186.733c-9.387,0-17.067,7.68-17.067,17.067c0,9.387,7.68,17.067,17.067,17.067s17.067-7.68,17.067-17.067
        C400.067,194.413,392.387,186.733,383,186.733z"/>
    </symbol>
    <symbol viewBox="0 0 25 24" id="icon-expand">
        <path d="M6.836 2.266a.632.632 0 0 0 0-1.264H1.635a.632.632 0 0 0-.632.632v5.201a.632.632 0 0 0 1.264 0v-4.57h4.57z"></path>
        <path d="M1.188 2.081L13.077 13.97a.63.63 0 1 0 .893-.893L2.081 1.188a.63.63 0 1 0-.893.893z"></path>
        <path d="M10.106 2.8h11.368a3.158 3.158 0 0 1 3.158 3.158v14.253a3.158 3.158 0 0 1-3.158 3.158H7.173a3.158 3.158 0 0 1-3.158-3.158v-7.98h1.263v7.98c0 1.046.848 1.895 1.895 1.895h14.301a1.895 1.895 0 0 0 1.895-1.895V5.958a1.895 1.895 0 0 0-1.895-1.895H10.106V2.8z"></path>
    </symbol>
    <symbol viewBox="0 0 28 28" id="icon-envelope">
        <path d="M0 23.5v-12.406q0.688 0.766 1.578 1.359 5.656 3.844 7.766 5.391 0.891 0.656 1.445 1.023t1.477 0.75 1.719 0.383h0.031q0.797 0 1.719-0.383t1.477-0.75 1.445-1.023q2.656-1.922 7.781-5.391 0.891-0.609 1.563-1.359v12.406q0 1.031-0.734 1.766t-1.766 0.734h-23q-1.031 0-1.766-0.734t-0.734-1.766zM0 6.844q0-1.219 0.648-2.031t1.852-0.812h23q1.016 0 1.758 0.734t0.742 1.766q0 1.234-0.766 2.359t-1.906 1.922q-5.875 4.078-7.313 5.078-0.156 0.109-0.664 0.477t-0.844 0.594-0.812 0.508-0.898 0.422-0.781 0.141h-0.031q-0.359 0-0.781-0.141t-0.898-0.422-0.812-0.508-0.844-0.594-0.664-0.477q-1.422-1-4.094-2.852t-3.203-2.227q-0.969-0.656-1.828-1.805t-0.859-2.133z" />
    </symbol>
    <symbol viewBox="0 0 155.139 155.139" id="icon-facebook">
        <path id="f_1_" d="M89.584,155.139V84.378h23.742l3.562-27.585H89.584V39.184
        c0-7.984,2.208-13.425,13.67-13.425l14.595-0.006V1.08C115.325,0.752,106.661,0,96.577,0C75.52,0,61.104,12.853,61.104,36.452
        v20.341H37.29v27.585h23.814v70.761H89.584z"/>
    </symbol>
    <symbol viewBox="0 0 20 28" id="icon-google">
        <path d="M1.734 21.156q0-1.266 0.695-2.344t1.852-1.797q2.047-1.281 6.312-1.563-0.5-0.641-0.742-1.148t-0.242-1.148q0-0.625 0.328-1.328-0.719 0.063-1.062 0.063-2.312 0-3.898-1.508t-1.586-3.82q0-1.281 0.562-2.484t1.547-2.047q1.188-1.031 2.844-1.531t3.406-0.5h6.516l-2.141 1.375h-2.063q1.172 0.984 1.766 2.078t0.594 2.5q0 1.125-0.383 2.023t-0.93 1.453-1.086 1.016-0.922 0.961-0.383 1.031q0 0.562 0.5 1.102t1.203 1.062 1.414 1.148 1.211 1.625 0.5 2.219q0 1.422-0.766 2.703-1.109 1.906-3.273 2.805t-4.664 0.898q-2.063 0-3.852-0.648t-2.695-2.148q-0.562-0.922-0.562-2.047zM4.641 20.438q0 0.875 0.367 1.594t0.953 1.18 1.359 0.781 1.563 0.453 1.586 0.133q0.906 0 1.742-0.203t1.547-0.609 1.141-1.141 0.43-1.703q0-0.391-0.109-0.766t-0.227-0.656-0.422-0.648-0.461-0.547-0.602-0.539-0.57-0.453-0.648-0.469-0.57-0.406q-0.25-0.031-0.766-0.031-0.828 0-1.633 0.109t-1.672 0.391-1.516 0.719-1.070 1.164-0.422 1.648zM6.297 4.906q0 0.719 0.156 1.523t0.492 1.609 0.812 1.445 1.172 1.047 1.508 0.406q0.578 0 1.211-0.258t1.023-0.68q0.828-0.875 0.828-2.484 0-0.922-0.266-1.961t-0.75-2.016-1.313-1.617-1.828-0.641q-0.656 0-1.289 0.305t-1.039 0.82q-0.719 0.922-0.719 2.5z" />
    </symbol>
    <symbol viewBox="0 0 512 512" id="icon-instagram">
        <path d="M256 49.5c67.3 0 75.2.3 101.8 1.5 24.6 1.1 37.9 5.2 46.8 8.7 11.8 4.6 20.2 10 29 18.8s14.3 17.2 18.8 29c3.4 8.9 7.6 22.2 8.7 46.8 1.2 26.6 1.5 34.5 1.5 101.8s-.3 75.2-1.5 101.8c-1.1 24.6-5.2 37.9-8.7 46.8-4.6 11.8-10 20.2-18.8 29s-17.2 14.3-29 18.8c-8.9 3.4-22.2 7.6-46.8 8.7-26.6 1.2-34.5 1.5-101.8 1.5s-75.2-.3-101.8-1.5c-24.6-1.1-37.9-5.2-46.8-8.7-11.8-4.6-20.2-10-29-18.8s-14.3-17.2-18.8-29c-3.4-8.9-7.6-22.2-8.7-46.8-1.2-26.6-1.5-34.5-1.5-101.8s.3-75.2 1.5-101.8c1.1-24.6 5.2-37.9 8.7-46.8 4.6-11.8 10-20.2 18.8-29s17.2-14.3 29-18.8c8.9-3.4 22.2-7.6 46.8-8.7 26.6-1.3 34.5-1.5 101.8-1.5m0-45.4c-68.4 0-77 .3-103.9 1.5C125.3 6.8 107 11.1 91 17.3c-16.6 6.4-30.6 15.1-44.6 29.1-14 14-22.6 28.1-29.1 44.6-6.2 16-10.5 34.3-11.7 61.2C4.4 179 4.1 187.6 4.1 256s.3 77 1.5 103.9c1.2 26.8 5.5 45.1 11.7 61.2 6.4 16.6 15.1 30.6 29.1 44.6 14 14 28.1 22.6 44.6 29.1 16 6.2 34.3 10.5 61.2 11.7 26.9 1.2 35.4 1.5 103.9 1.5s77-.3 103.9-1.5c26.8-1.2 45.1-5.5 61.2-11.7 16.6-6.4 30.6-15.1 44.6-29.1 14-14 22.6-28.1 29.1-44.6 6.2-16 10.5-34.3 11.7-61.2 1.2-26.9 1.5-35.4 1.5-103.9s-.3-77-1.5-103.9c-1.2-26.8-5.5-45.1-11.7-61.2-6.4-16.6-15.1-30.6-29.1-44.6-14-14-28.1-22.6-44.6-29.1-16-6.2-34.3-10.5-61.2-11.7-27-1.1-35.6-1.4-104-1.4z"/><path d="M256 126.6c-71.4 0-129.4 57.9-129.4 129.4s58 129.4 129.4 129.4 129.4-58 129.4-129.4-58-129.4-129.4-129.4zm0 213.4c-46.4 0-84-37.6-84-84s37.6-84 84-84 84 37.6 84 84-37.6 84-84 84z"/><circle cx="390.5" cy="121.5" r="30.2"/>
    </symbol>
    <symbol viewBox="0 0 512 512" id="icon-snapchat-ghost">
        <path d="M510.846 392.673c-5.211 12.157-27.239 21.089-67.36 27.318-2.064 2.786-3.775 14.686-6.507 23.956-1.625 5.566-5.623 8.869-12.128 8.869l-.297-.005c-9.395 0-19.203-4.323-38.852-4.323-26.521 0-35.662 6.043-56.254 20.588-21.832 15.438-42.771 28.764-74.027 27.399-31.646 2.334-58.025-16.908-72.871-27.404-20.714-14.643-29.828-20.582-56.241-20.582-18.864 0-30.736 4.72-38.852 4.72-8.073 0-11.213-4.922-12.422-9.04-2.703-9.189-4.404-21.263-6.523-24.13-20.679-3.209-67.31-11.344-68.498-32.15a10.627 10.627 0 0 1 8.877-11.069c69.583-11.455 100.924-82.901 102.227-85.934.074-.176.155-.344.237-.515 3.713-7.537 4.544-13.849 2.463-18.753-5.05-11.896-26.872-16.164-36.053-19.796-23.715-9.366-27.015-20.128-25.612-27.504 2.437-12.836 21.725-20.735 33.002-15.453 8.919 4.181 16.843 6.297 23.547 6.297 5.022 0 8.212-1.204 9.96-2.171-2.043-35.936-7.101-87.29 5.687-115.969C158.122 21.304 229.705 15.42 250.826 15.42c.944 0 9.141-.089 10.11-.089 52.148 0 102.254 26.78 126.723 81.643 12.777 28.65 7.749 79.792 5.695 116.009 1.582.872 4.357 1.942 8.599 2.139 6.397-.286 13.815-2.389 22.069-6.257 6.085-2.846 14.406-2.461 20.48.058l.029.01c9.476 3.385 15.439 10.215 15.589 17.87.184 9.747-8.522 18.165-25.878 25.018-2.118.835-4.694 1.655-7.434 2.525-9.797 3.106-24.6 7.805-28.616 17.271-2.079 4.904-1.256 11.211 2.46 18.748.087.168.166.342.239.515 1.301 3.03 32.615 74.46 102.23 85.934 6.427 1.058 11.163 7.877 7.725 15.859z" class=""></path>
    </symbol>
    <symbol viewBox="0 0 448 512" id="icon-messenger">
        <path d="M224.5 32C98 32 0 124.44 0 249.29 0 314.6 26.83 371 70.51 410c7.55 6.78 6 10.71 7.27 52.6A18 18 0 0 0 103 478.47c47.8-21 48.41-22.71 56.51-20.5C297.93 496.08 448 407.47 448 249.29 448 124.44 351 32 224.5 32zm134.79 167.21l-66 104.39a33.75 33.75 0 0 1-48.69 9l-52.4-39.29a13.49 13.49 0 0 0-16.21.05L105.16 327c-9.44 7.17-21.82-4.15-15.45-14.15l66-104.39a33.76 33.76 0 0 1 48.69-9l52.45 39.26a13.51 13.51 0 0 0 16.22 0l70.82-53.64c9.39-7.19 21.77 4.13 15.4 14.13z" class=""></path>
    </symbol>
    <symbol viewBox="0 0 24 24" id="icon-keyboard-arrow-down">
        <path d="M7.41 7.84L12 12.42l4.59-4.58L18 9.25l-6 6-6-6z" />
    </symbol>
    <symbol viewBox="0 0 24 24" id="icon-keyboard-arrow-up">
        <path d="M7.41 15.41L12 10.83l4.59 4.58L18 14l-6-6-6 6z" />
    </symbol>
    <symbol viewBox="0 0 32 32" id="icon-linkedin">
        <path d="M27.2684444,27.2675556 L22.5226667,27.2675556 L22.5226667,19.8408889 C22.5226667,18.0702222 22.4924444,15.792 20.0568889,15.792 C17.5866667,15.792 17.2097778,17.7217778 17.2097778,19.7146667 L17.2097778,27.2675556 L12.4693333,27.2675556 L12.4693333,11.9964444 L17.0186667,11.9964444 L17.0186667,14.0844444 L17.0844444,14.0844444 C17.7173333,12.8835556 19.2657778,11.6177778 21.5742222,11.6177778 C26.3804444,11.6177778 27.2684444,14.7795556 27.2684444,18.8924444 L27.2684444,27.2675556 L27.2684444,27.2675556 Z M7.11822222,9.91022222 C5.59377778,9.91022222 4.36444444,8.67733333 4.36444444,7.15733333 C4.36444444,5.63822222 5.59377778,4.40533333 7.11822222,4.40533333 C8.63644444,4.40533333 9.86844444,5.63822222 9.86844444,7.15733333 C9.86844444,8.67733333 8.63644444,9.91022222 7.11822222,9.91022222 L7.11822222,9.91022222 Z M4.74133333,11.9964444 L9.49244444,11.9964444 L9.49244444,27.2675556 L4.74133333,27.2675556 L4.74133333,11.9964444 Z M29.632,0 L2.36,0 C1.05777778,0 0,1.03288889 0,2.30755556 L0,29.6906667 C0,30.9653333 1.05777778,32 2.36,32 L29.632,32 C30.9368889,32 31.9991111,30.9653333 31.9991111,29.6906667 L31.9991111,2.30755556 C31.9991111,1.03288889 30.9368889,0 29.632,0 L29.632,0 Z" id="linkedin-Fill-4" />
    </symbol>
    
    <symbol viewBox="0 0 24 24" id="icon-lock">
        <path d="M18 8h-1V6c0-2.76-2.24-5-5-5S7 3.24 7 6v2H6c-1.1 0-2 .9-2 2v10c0 1.1.9 2 2 2h12c1.1 0 2-.9 2-2V10c0-1.1-.9-2-2-2zm-6 9c-1.1 0-2-.9-2-2s.9-2 2-2 2 .9 2 2-.9 2-2 2zm3.1-9H8.9V6c0-1.71 1.39-3.1 3.1-3.1 1.71 0 3.1 1.39 3.1 3.1v2z" />
    </symbol>
    <symbol viewBox="0 0 176.515 33.863" id="icon-logo-amazonpay">
        <path d=" M 69.652 26.489 C 63.129 31.303 53.672 33.863 45.528 33.863 C 34.115 33.863 23.837 29.644 16.059 22.621 C 15.449 22.069 15.993 21.316 16.727 21.743 C 25.118 26.626 35.496 29.567 46.213 29.567 C 53.443 29.567 61.391 28.066 68.704 24.964 C 69.807 24.497 70.732 25.691 69.652 26.489 Z " fill-rule="evenodd" />
        <path d=" M 72.367 23.389 C 71.532 22.321 66.852 22.883 64.749 23.135 C 64.112 23.212 64.013 22.655 64.587 22.252 C 68.321 19.629 74.44 20.386 75.151 21.265 C 75.867 22.15 74.962 28.285 71.464 31.212 C 70.925 31.662 70.413 31.422 70.652 30.828 C 71.44 28.861 73.202 24.459 72.367 23.389 Z " fill-rule="evenodd" />
        <path d=" M 64.897 3.724 L 64.897 1.176 C 64.899 0.788 65.191 0.53 65.543 0.531 L 76.965 0.53 C 77.33 0.53 77.624 0.795 77.624 1.173 L 77.624 3.358 C 77.62 3.725 77.311 4.203 76.764 4.962 L 70.847 13.41 C 73.043 13.359 75.366 13.688 77.362 14.809 C 77.812 15.062 77.933 15.437 77.968 15.804 L 77.968 18.523 C 77.968 18.898 77.558 19.331 77.126 19.106 C 73.611 17.264 68.946 17.063 65.058 19.128 C 64.661 19.34 64.246 18.912 64.246 18.537 L 64.246 15.952 C 64.246 15.539 64.254 14.831 64.671 14.201 L 71.525 4.367 L 65.557 4.366 C 65.192 4.366 64.899 4.106 64.897 3.724 Z " fill-rule="evenodd" />
        <path d=" M 23.233 19.641 L 19.758 19.641 C 19.427 19.62 19.163 19.372 19.136 19.054 L 19.139 1.219 C 19.139 0.863 19.439 0.578 19.81 0.578 L 23.046 0.577 C 23.384 0.594 23.656 0.85 23.677 1.176 L 23.677 3.504 L 23.743 3.504 C 24.586 1.252 26.175 0.201 28.316 0.201 C 30.489 0.201 31.852 1.252 32.825 3.504 C 33.668 1.252 35.582 0.201 37.625 0.201 C 39.085 0.201 40.674 0.802 41.647 2.153 C 42.75 3.655 42.524 5.831 42.524 7.745 L 42.52 19 C 42.52 19.355 42.221 19.641 41.85 19.641 L 38.38 19.641 C 38.03 19.619 37.756 19.343 37.756 19.001 L 37.755 9.546 C 37.755 8.796 37.82 6.92 37.657 6.207 C 37.398 5.005 36.62 4.667 35.615 4.667 C 34.771 4.667 33.895 5.23 33.538 6.13 C 33.181 7.032 33.214 8.532 33.214 9.546 L 33.214 19 C 33.214 19.355 32.914 19.641 32.544 19.641 L 29.073 19.641 C 28.724 19.619 28.449 19.343 28.449 19.001 L 28.445 9.546 C 28.445 7.557 28.77 4.631 26.305 4.631 C 23.807 4.631 23.905 7.482 23.905 9.546 L 23.903 19 C 23.903 19.355 23.603 19.641 23.233 19.641 Z " fill-rule="evenodd" />
        <path d=" M 87.488 3.842 C 84.926 3.842 84.764 7.331 84.764 9.508 C 84.764 11.685 84.732 16.339 87.457 16.339 C 90.149 16.339 90.279 12.586 90.279 10.297 C 90.279 8.796 90.213 6.994 89.759 5.568 C 89.37 4.329 88.591 3.842 87.488 3.842 Z  M 87.457 0.201 C 92.614 0.201 95.403 4.631 95.403 10.26 C 95.403 15.7 92.322 20.017 87.457 20.017 C 82.396 20.017 79.639 15.588 79.639 10.072 C 79.639 4.517 82.428 0.201 87.457 0.201 Z " fill-rule="evenodd" />
        <path d=" M 102.092 19.641 L 98.629 19.641 C 98.282 19.619 98.006 19.343 98.006 19.001 L 98 1.16 C 98.03 0.833 98.318 0.578 98.668 0.578 L 101.891 0.577 C 102.195 0.593 102.445 0.799 102.509 1.076 L 102.509 3.804 L 102.574 3.804 C 103.548 1.364 104.909 0.201 107.309 0.201 C 108.866 0.201 110.391 0.764 111.364 2.303 C 112.272 3.729 112.272 6.13 112.272 7.857 L 112.272 19.08 C 112.234 19.396 111.95 19.641 111.606 19.641 L 108.123 19.641 C 107.801 19.621 107.542 19.384 107.504 19.08 L 107.504 9.397 C 107.504 7.445 107.732 4.592 105.331 4.592 C 104.488 4.592 103.709 5.155 103.32 6.018 C 102.833 7.107 102.768 8.195 102.768 9.397 L 102.768 19 C 102.762 19.355 102.462 19.641 102.092 19.641 Z " fill-rule="evenodd" />
        <path d=" M 59.294 19.597 C 59.065 19.803 58.734 19.817 58.474 19.678 C 57.32 18.719 57.113 18.276 56.482 17.362 C 54.575 19.305 53.224 19.888 50.753 19.888 C 47.828 19.888 45.552 18.082 45.552 14.472 C 45.552 11.651 47.081 9.733 49.258 8.793 C 51.143 7.965 53.776 7.815 55.792 7.589 L 55.792 7.138 C 55.792 6.309 55.857 5.333 55.369 4.618 C 54.946 3.978 54.134 3.715 53.419 3.715 C 52.093 3.715 50.916 4.394 50.626 5.801 C 50.565 6.114 50.337 6.425 50.023 6.441 L 46.654 6.076 C 46.37 6.011 46.054 5.783 46.135 5.349 C 46.9 1.32 50.498 0.064 53.768 0.03 L 54.026 0.03 C 55.7 0.051 57.838 0.51 59.14 1.759 C 60.831 3.339 60.667 5.445 60.667 7.74 L 60.667 13.153 C 60.667 14.782 61.344 15.496 61.979 16.373 C 62.202 16.69 62.251 17.065 61.968 17.297 C 61.258 17.892 59.997 18.987 59.304 19.605 L 59.294 19.597 Z  M 55.792 11.125 C 55.792 12.479 55.824 13.607 55.142 14.811 C 54.589 15.788 53.711 16.39 52.736 16.39 C 51.404 16.39 50.624 15.375 50.624 13.87 C 50.624 10.91 53.278 10.372 55.792 10.372 L 55.792 11.125 Z " fill-rule="evenodd" />
        <path d=" M 13.743 19.597 C 13.513 19.803 13.181 19.817 12.922 19.678 C 11.767 18.719 11.56 18.276 10.93 17.362 C 9.022 19.305 7.672 19.888 5.201 19.888 C 2.276 19.888 0 18.082 0 14.472 C 0 11.651 1.527 9.733 3.706 8.793 C 5.591 7.965 8.224 7.815 10.239 7.589 L 10.239 7.138 C 10.239 6.309 10.305 5.333 9.817 4.618 C 9.394 3.978 8.581 3.715 7.867 3.715 C 6.541 3.715 5.362 4.394 5.074 5.801 C 5.014 6.114 4.785 6.425 4.47 6.441 L 1.102 6.076 C 0.817 6.011 0.501 5.783 0.583 5.349 C 1.346 1.32 4.945 0.064 8.216 0.03 L 8.474 0.03 C 10.148 0.051 12.286 0.51 13.588 1.759 C 15.278 3.339 15.115 5.445 15.115 7.74 L 15.115 13.153 C 15.115 14.782 15.792 15.496 16.427 16.373 C 16.648 16.69 16.699 17.065 16.416 17.297 C 15.706 17.892 14.444 18.987 13.751 19.605 L 13.743 19.597 Z  M 10.239 11.125 C 10.239 12.479 10.272 13.607 9.589 14.811 C 9.037 15.788 8.159 16.39 7.183 16.39 C 5.851 16.39 5.071 15.375 5.071 13.87 C 5.071 10.91 7.726 10.372 10.239 10.372 L 10.239 11.125 Z " fill-rule="evenodd" />
        <path d=" M 159.773 26.039 C 159.773 25.587 159.773 25.181 159.773 24.729 C 159.773 24.356 159.956 24.099 160.345 24.122 C 161.071 24.225 162.098 24.328 162.827 24.178 C 163.779 23.98 164.462 23.305 164.866 22.38 C 165.435 21.078 165.812 20.028 166.05 19.339 L 158.821 1.431 C 158.699 1.127 158.663 0.563 159.27 0.563 L 161.797 0.563 C 162.279 0.563 162.475 0.869 162.583 1.169 L 167.824 15.715 L 172.827 1.169 C 172.929 0.871 173.134 0.563 173.612 0.563 L 175.995 0.563 C 176.598 0.563 176.564 1.126 176.444 1.431 L 169.273 19.898 C 168.345 22.356 167.109 26.271 164.325 26.951 C 162.929 27.316 161.168 27.184 160.134 26.751 C 159.873 26.62 159.773 26.27 159.773 26.039 Z " fill-rule="evenodd" />
        <path d=" M 156.402 18.55 C 156.402 18.883 156.129 19.156 155.794 19.156 L 154.012 19.156 C 153.627 19.156 153.364 18.878 153.315 18.55 L 153.136 17.337 C 152.317 18.03 151.312 18.639 150.222 19.063 C 148.126 19.877 145.71 20.012 143.662 18.754 C 142.181 17.845 141.395 16.068 141.395 14.235 C 141.395 12.817 141.832 11.411 142.801 10.39 C 144.094 8.995 145.968 8.31 148.231 8.31 C 149.598 8.31 151.554 8.471 152.977 8.936 L 152.977 6.495 C 152.977 4.013 151.932 2.939 149.177 2.939 C 147.071 2.939 145.46 3.257 143.218 3.954 C 142.859 3.966 142.649 3.693 142.649 3.36 L 142.649 1.968 C 142.649 1.634 142.934 1.311 143.243 1.213 C 144.844 0.515 147.112 0.08 149.523 0 C 152.666 0 156.402 0.709 156.402 5.543 L 156.402 18.55 Z  M 152.977 14.986 L 152.977 11.303 C 151.781 10.976 149.802 10.84 149.036 10.84 C 147.826 10.84 146.501 11.126 145.809 11.871 C 145.292 12.417 145.058 13.201 145.058 13.959 C 145.058 14.939 145.397 15.922 146.189 16.408 C 147.109 17.033 148.536 16.957 149.877 16.576 C 151.166 16.21 152.376 15.563 152.977 14.986 Z " fill-rule="evenodd" />
        <path d=" M 130.127 2.994 C 134.081 2.994 135.158 6.103 135.158 9.663 C 135.18 12.063 134.739 14.203 133.496 15.428 C 132.566 16.345 131.527 16.595 129.963 16.595 C 128.571 16.595 126.74 15.869 125.372 14.858 L 125.372 4.679 C 126.796 3.585 128.613 2.994 130.127 2.994 Z  M 124.766 26.678 L 122.379 26.678 C 122.045 26.678 121.772 26.405 121.772 26.072 C 121.772 17.782 121.772 9.491 121.772 1.201 C 121.772 0.868 122.045 0.595 122.379 0.595 L 124.206 0.595 C 124.59 0.595 124.853 0.873 124.902 1.201 L 125.094 2.504 C 126.805 0.985 129.008 0.011 131.107 0.011 C 136.986 0.011 138.919 4.855 138.919 9.892 C 138.919 15.281 135.962 19.611 130.961 19.611 C 128.855 19.611 126.886 18.834 125.372 17.484 L 125.372 26.072 C 125.372 26.405 125.099 26.678 124.766 26.678 Z " fill-rule="evenodd" />
    </symbol>

    <symbol viewBox="0 0 2387.3 948" id="icon-logo-googlepay">
        <g>
            <path class="st0" fill="#5F6368" d="M1129.1,463.2V741h-88.2V54.8h233.8c56.4-1.2,110.9,20.2,151.4,59.4c41,36.9,64.1,89.7,63.2,144.8
                c1.2,55.5-21.9,108.7-63.2,145.7c-40.9,39-91.4,58.5-151.4,58.4L1129.1,463.2L1129.1,463.2z M1129.1,139.3v239.6h147.8
                c32.8,1,64.4-11.9,87.2-35.5c46.3-45,47.4-119.1,2.3-165.4c-0.8-0.8-1.5-1.6-2.3-2.3c-22.5-24.1-54.3-37.3-87.2-36.4L1129.1,139.3
                L1129.1,139.3z M1692.5,256.2c65.2,0,116.6,17.4,154.3,52.2c37.7,34.8,56.5,82.6,56.5,143.2V741H1819v-65.2h-3.8
                c-36.5,53.7-85.1,80.5-145.7,80.5c-51.7,0-95-15.3-129.8-46c-33.8-28.5-53-70.7-52.2-115c0-48.6,18.4-87.2,55.1-115.9
                c36.7-28.7,85.7-43.1,147.1-43.1c52.3,0,95.5,9.6,129.3,28.7v-20.2c0.2-30.2-13.2-58.8-36.4-78c-23.3-21-53.7-32.5-85.1-32.1
                c-49.2,0-88.2,20.8-116.9,62.3l-77.6-48.9C1545.6,286.8,1608.8,256.2,1692.5,256.2L1692.5,256.2z M1578.4,597.3
                c-0.1,22.8,10.8,44.2,29.2,57.5c19.5,15.3,43.7,23.5,68.5,23c37.2-0.1,72.9-14.9,99.2-41.2c29.2-27.5,43.8-59.7,43.8-96.8
                c-27.5-21.9-65.8-32.9-115-32.9c-35.8,0-65.7,8.6-89.6,25.9C1590.4,550.4,1578.4,571.7,1578.4,597.3L1578.4,597.3z M2387.3,271.5
                L2093,948h-91l109.2-236.7l-193.6-439.8h95.8l139.9,337.3h1.9l136.1-337.3L2387.3,271.5z"/>
        </g>
        <path class="st1" fill="#4285F4" d="M772.8,403.2c0-26.9-2.2-53.7-6.8-80.2H394.2v151.8h212.9c-8.8,49-37.2,92.3-78.7,119.8v98.6h127.1
            C729.9,624.7,772.8,523.2,772.8,403.2L772.8,403.2z"/>
        <path class="st2" fill="#34A853" d="M394.2,788.5c106.4,0,196-34.9,261.3-95.2l-127.1-98.6c-35.4,24-80.9,37.7-134.2,37.7
            c-102.8,0-190.1-69.3-221.3-162.7H42v101.6C108.9,704.5,245.2,788.5,394.2,788.5z"/>
        <path class="st3" fill="#FBBC04" d="M172.9,469.7c-16.5-48.9-16.5-102,0-150.9V217.2H42c-56,111.4-56,242.7,0,354.1L172.9,469.7z"/>
        <path class="st4" fill="#EA4335" d="M394.2,156.1c56.2-0.9,110.5,20.3,151.2,59.1L658,102.7C586.6,35.7,492.1-1.1,394.2,0
            C245.2,0,108.9,84.1,42,217.2l130.9,101.6C204.1,225.4,291.4,156.1,394.2,156.1z"/>
    </symbol>
    <symbol viewBox="0 0 49.866 49.866" id="icon-logo-klarna">
        <path d="M13.201 18.265h-1.658c-.415.001-.454.042-.454.462v12.291c0 .343.059.4.397.402.542.003 1.085 0 1.629 0 .511 0 .558-.045.558-.549V20.438v-1.715c-.001-.389-.073-.457-.472-.458zM2.339 18.266a85.129 85.129 0 0 0-1.516.001c-.53.008-.823.31-.823.842v11.866c0 .349.047.396.397.396.514.004 1.029.004 1.543 0 .54-.004.811-.273.811-.81V18.695c.001-.347-.072-.426-.412-.429zM9.724 31.072c-.147-1.464-.68-2.763-1.705-3.836-1.104-1.154-2.462-1.789-3.943-1.936-.478-.009-.482-.009-.469.352.005.133.031.264.051.396.265 1.755 1.123 3.153 2.551 4.198.936.688 1.995 1.045 3.148 1.153.343.033.401.009.367-.327zM9.365 18.298c-.131.021-.267.013-.397.033-1.502.239-2.777.904-3.791 2.043-.929 1.042-1.445 2.271-1.567 3.659-.031.362-.011.363.37.412.523-.129 1.067-.208 1.567-.398 2.497-.948 3.863-2.788 4.178-5.428.04-.335-.016-.373-.36-.321zM22.763 24.496c-.038-1.457-.867-2.432-2.269-2.777-1.555-.386-3.096-.16-4.629.167-.182.038-.257.169-.253.36.008.341.002.685.002 1.028 0 .489.064.513.548.484a52.359 52.359 0 0 1 2.964-.098c.59 0 .948.333 1.046.867.031.166.019.342.019.513.002.663.001.669-.653.661-.914-.009-1.825.021-2.71.289-.914.274-1.571.815-1.769 1.789a4.336 4.336 0 0 0 .039 1.896c.212.875.742 1.471 1.608 1.729.962.283 1.915.242 2.83-.201.262-.127.511-.283.804-.446.012.091.021.137.023.184.022.43.076.484.512.484.514.001 1.028.002 1.543 0 .299-.002.405-.097.404-.388-.013-2.181-.002-4.363-.059-6.541zm-2.825 4.912c-.56.217-1.126.334-1.727.23-.374-.064-.648-.286-.68-.666a3.803 3.803 0 0 1 .06-1.044c.073-.362.339-.627.702-.673.592-.073 1.191-.089 1.787-.11.053-.002.154.127.159.201.019.294.008.59.008.885 0 .23-.018.46.005.687.03.264-.073.398-.314.49zM48.592 20.968v.075h.21v.613h.09v-.613h.21v-.075zM49.823 20.968h-.119l-.123.333c-.029.087-.055.162-.072.232h-.001c-.021-.072-.042-.148-.07-.232l-.117-.333h-.113l-.047.688h.084l.02-.296a9.67 9.67 0 0 0 .013-.304h.002c.021.081.047.17.079.267l.112.329h.067l.121-.335c.035-.095.062-.181.086-.261h.002c0 .084.006.202.013.297l.016.303h.09l-.043-.688zM39.115 25.146a7.65 7.65 0 0 0-.18-1.557c-.225-1.055-.83-1.798-1.941-1.992-1.213-.215-2.369-.043-3.41.663-.102.068-.204.13-.379.241-.008-.205-.02-.332-.022-.461-.008-.336-.066-.399-.404-.401-.537-.003-1.069-.004-1.602.001-.314.002-.408.1-.408.413v8.918c0 .349.094.445.436.447.591.002 1.182-.006 1.773.005.264.003.383-.101.378-.372-.01-.59-.003-1.18-.003-1.772 0-1.572-.003-3.144.006-4.716 0-.13.034-.325.121-.379.656-.404 1.36-.652 2.143-.522.431.071.733.324.814.769.057.308.1.621.1.933.012 1.869.006 3.736.006 5.604 0 .407.047.452.464.452.534.003 1.069.003 1.602 0 .461 0 .514-.051.514-.502 0-1.922.013-3.846-.008-5.772zM48.216 25.035a5.978 5.978 0 0 0-.06-.884c-.178-1.14-.789-1.954-1.896-2.323a5.778 5.778 0 0 0-1.446-.293c-1.164-.073-2.314.066-3.453.323-.25.058-.355.194-.354.438v.943c0 .506.07.545.562.519.98-.055 1.959-.099 2.938-.105.632-.002.986.323 1.093.948.048.28.022.571.037.854.01.188-.079.25-.259.244-.41-.006-.825-.041-1.229.008-.695.082-1.4.162-2.072.35-.891.251-1.469.874-1.615 1.812-.059.389-.049.793-.03 1.189.076 1.608 1.303 2.664 2.908 2.534.811-.063 1.575-.256 2.239-.751.045-.032.102-.05.164-.078.029.044.047.055.049.073a.87.87 0 0 1 .017.144c.022.415.049.44.475.44.496.003.99.003 1.486 0 .399 0 .448-.045.448-.438.001-1.982.003-3.965-.002-5.947zm-2.519 3.974c.007.182-.071.278-.23.349-.585.259-1.186.392-1.829.287-.463-.079-.734-.393-.726-.975.015-.989.233-1.436 1.436-1.527.359-.028.724.001 1.085-.007.203-.009.268.086.264.274-.009.276-.004.554-.004.828.002.256-.008.512.004.771zM29.692 21.877c.001-.255-.113-.364-.366-.354a3.64 3.64 0 0 0-2.018.701c-.082.06-.164.115-.287.203-.01-.137-.021-.218-.021-.3-.008-.41-.08-.486-.481-.486-.517-.002-1.029-.001-1.544-.001-.471.001-.549.077-.549.546v8.718c0 .422.093.516.494.516.542.003 1.087.003 1.63 0 .438 0 .508-.066.508-.518.001-2.113.003-4.229-.004-6.347 0-.209.061-.328.253-.419.636-.299 1.288-.523 2.003-.494.262.011.389-.088.383-.365a34.39 34.39 0 0 1-.001-1.4z" />
    </symbol>
    <symbol viewBox="0 0 26 26" id="icon-logo-small">
        <path d="M17.647 12.125h-3.323c-.11 0-.197.087-.197.194v2.327c0 .107.087.193.197.193h3.323c.95 0 1.542-.524 1.542-1.357 0-.795-.594-1.358-1.543-1.358zm-2.62-2.423h3.233c2.51 0 3.988 1.57 3.988 3.296 0 1.35-.915 2.345-1.885 2.78-.155.07-.15.283.01.346 1.128.443 1.94 1.623 1.94 3 0 1.96-1.305 3.512-3.837 3.512h-6.96c-.11 0-.197-.087-.197-.194v-9.03L.237 24.49c-.51.508-.148 1.378.57 1.378h24.254c.446 0 .808-.362.808-.808V.81c0-.72-.87-1.08-1.38-.572L15.03 9.702zm-.703 7.562c-.11 0-.197.087-.197.194v2.56c0 .106.087.193.197.193h3.44c1.05 0 1.682-.542 1.682-1.472 0-.815-.593-1.474-1.68-1.474h-3.442z" fill="#000" fill-rule="evenodd" />
    </symbol>
    <symbol viewBox="0 0 780 500" id="icon-logo-visa">
        <rect width="780" height="500" fill="#0E4595"></rect> 
        <path d="m293.2 348.73l33.361-195.76h53.36l-33.385 195.76h-53.336zm246.11-191.54c-10.57-3.966-27.137-8.222-47.822-8.222-52.725 0-89.865 26.55-90.18 64.603-0.299 28.13 26.514 43.822 46.752 53.186 20.771 9.595 27.752 15.714 27.654 24.283-0.131 13.121-16.586 19.116-31.922 19.116-21.357 0-32.703-2.967-50.227-10.276l-6.876-3.11-7.489 43.823c12.463 5.464 35.51 10.198 59.438 10.443 56.09 0 92.5-26.246 92.916-66.882 0.199-22.269-14.016-39.216-44.801-53.188-18.65-9.055-30.072-15.099-29.951-24.268 0-8.137 9.668-16.839 30.557-16.839 17.449-0.27 30.09 3.535 39.938 7.5l4.781 2.26 7.232-42.429m137.31-4.223h-41.232c-12.773 0-22.332 3.487-27.941 16.234l-79.244 179.4h56.031s9.16-24.123 11.232-29.418c6.125 0 60.555 0.084 68.338 0.084 1.596 6.853 6.49 29.334 6.49 29.334h49.514l-43.188-195.64zm-65.418 126.41c4.412-11.279 21.26-54.723 21.26-54.723-0.316 0.522 4.379-11.334 7.074-18.684l3.605 16.879s10.219 46.729 12.354 56.528h-44.293zm-363.3-126.41l-52.24 133.5-5.567-27.13c-9.725-31.273-40.025-65.155-73.898-82.118l47.766 171.2 56.456-0.064 84.004-195.39h-56.521" fill="#fff"></path> 
        <path d="m146.92 152.96h-86.041l-0.681 4.073c66.938 16.204 111.23 55.363 129.62 102.41l-18.71-89.96c-3.23-12.395-12.597-16.094-24.186-16.527" fill="#F2AE14"></path>
    </symbol>
    <symbol viewBox="0 0 256 160" id="icon-logo-mastercard">
        <style>.sta0{fill:#ED1C24;} .sta1{fill:#FAA61A;} .sta2{fill:#FFFFFF;} .sta3{fill:#003375;}</style><g id="XMLID_3_"><g id="XMLID_83_"><g id="XMLID_93_"><circle id="XMLID_96_" class="sta0" cx="96.5" cy="80" r="47"/><g id="XMLID_94_"><path id="XMLID_95_" class="sta1" d="M159.5 33c-12.1 0-23.2 4.6-31.5 12.2-1.7 1.5-3.3 3.2-4.7 5h9.5c1.3 1.6 2.5 3.2 3.6 5h-16.6c-1 1.6-1.9 3.3-2.7 5H139c.8 1.6 1.4 3.3 2 5h-26c-.5 1.6-1 3.3-1.4 5h28.8c.7 3.2 1.1 6.5 1.1 9.9 0 5.2-.8 10.2-2.4 14.9h-26c.6 1.7 1.2 3.4 2 5H139c-.8 1.7-1.7 3.4-2.7 5h-16.6c1.1 1.7 2.3 3.4 3.6 5h9.5c-1.5 1.8-3 3.4-4.7 5 8.3 7.6 19.4 12.2 31.5 12.2 25.9 0 47-21 47-47-.1-26.1-21.1-47.2-47.1-47.2z"/></g></g><path id="XMLID_84_" class="sta2" d="M200.2 106.2c0-.8.7-1.5 1.5-1.5s1.5.7 1.5 1.5-.7 1.5-1.5 1.5-1.5-.7-1.5-1.5zm1.5 1.1c.6 0 1.2-.5 1.2-1.2 0-.6-.5-1.2-1.2-1.2-.6 0-1.2.5-1.2 1.2.1.7.6 1.2 1.2 1.2zm-.2-.5h-.3v-1.3h.6c.1 0 .2 0 .3.1.1.1.2.2.2.3 0 .2-.1.3-.2.3l.2.6h-.3l-.2-.5h-.2v.5zm0-.7h.4c.1 0 .1-.1.1-.2s0-.1-.1-.1h-.4v.3z"/></g><g id="XMLID_4_"><g id="XMLID_60_"><path id="XMLID_78_" class="sta3" d="M85.5 85.1c-.5-.1-.8-.1-1.1-.1-2.9 0-4.4 1-4.4 2.9 0 1.2.7 2 1.8 2 2.1.1 3.6-1.9 3.7-4.8zm3.7 8.7H85l.1-2c-1.3 1.6-3 2.3-5.3 2.3-2.8 0-4.7-2.2-4.7-5.3 0-4.7 3.3-7.5 9-7.5.6 0 1.3.1 2.1.1.2-.6.2-.9.2-1.3 0-1.3-.9-1.8-3.3-1.8-2.5 0-4.6.6-5.4.9.1-.3.7-4.4.7-4.4 2.5-.7 4.2-1 6.1-1 4.4 0 6.7 2 6.7 5.7 0 1-.2 2.2-.4 3.8-.5 3-1.4 9-1.6 10.5z"/><path id="XMLID_77_" class="sta3" d="M73 93.8h-5.1l2.9-18.3-6.5 18.3h-3.5l-.4-18.2-3.1 18.2h-4.8l4-23.8h7.3l.5 13.3L68.7 70h8.2z"/><path id="XMLID_72_" class="sta3" d="M165.8 85.1c-.5-.1-.8-.1-1.1-.1-2.9 0-4.4 1-4.4 2.9 0 1.2.7 2 1.8 2 2.1.1 3.6-1.9 3.7-4.8zm3.7 8.7h-4.2l.1-2c-1.3 1.6-3 2.3-5.3 2.3-2.8 0-4.7-2.2-4.7-5.3 0-4.7 3.3-7.5 8.9-7.5.6 0 1.3.1 2.1.1.2-.6.2-.9.2-1.3 0-1.3-.9-1.8-3.3-1.8-2.5 0-4.6.6-5.4.9.1-.3.7-4.4.7-4.4 2.5-.7 4.2-1 6.1-1 4.4 0 6.7 2 6.7 5.7 0 1-.2 2.2-.4 3.8-.4 3-1.3 9-1.5 10.5z"/><path id="XMLID_71_" class="sta3" d="M111.9 93.5c-1.4.4-2.5.6-3.7.6-2.6 0-4-1.5-4-4.3 0-.9.4-3.1.7-5.2l2.2-13.2h5.1l-.6 2.9h3.1L114 79h-3.1c-.6 3.7-1.4 8.3-1.4 8.9 0 1 .5 1.4 1.7 1.4.6 0 1-.1 1.4-.2l-.7 4.4z"/><path id="XMLID_66_" class="sta3" d="M127.4 93.3c-1.7.5-3.4.8-5.2.8-5.7 0-8.6-3-8.6-8.6 0-6.6 3.8-11.5 8.9-11.5 4.2 0 6.8 2.7 6.8 7 0 1.4-.2 2.8-.6 4.8h-10.1c-.3 2.8 1.5 4 4.4 4 1.8 0 3.4-.4 5.3-1.2l-.9 4.7zm-2.8-11.5c0-.4.5-3.5-2.4-3.5-1.6 0-2.8 1.2-3.2 3.5h5.6z"/><path id="XMLID_65_" class="sta3" d="M92.3 80.5c0 2.4 1.2 4.1 3.9 5.4 2.1 1 2.4 1.3 2.4 2.1 0 1.2-.9 1.8-2.9 1.8-1.5 0-2.9-.2-4.6-.8 0 0-.7 4.3-.7 4.5 1.2.3 2.2.5 5.3.6 5.4 0 7.9-2 7.9-6.5 0-2.7-1-4.2-3.6-5.4-2.1-1-2.4-1.2-2.4-2.1 0-1 .8-1.6 2.5-1.6 1 0 2.4.1 3.7.3l.7-4.5c-1.3-.2-3.3-.4-4.5-.4-5.8.1-7.7 3-7.7 6.6z"/><path id="XMLID_64_" class="sta3" d="M152.2 74.5c1.4 0 2.7.4 4.6 1.3l.8-5.2c-.7-.3-3.4-2-5.6-2-3.4 0-6.3 1.7-8.3 4.5-3-1-4.2 1-5.7 3l-1.3.3c.1-.6.2-1.3.2-1.9h-4.7c-.6 6-1.8 12.1-2.7 18.1l-.2 1.3h5.1c.9-5.5 1.3-9.1 1.6-11.5l1.9-1.1c.3-1.1 1.2-1.4 3-1.4-.2 1.3-.4 2.6-.4 4 0 6.3 3.4 10.3 8.9 10.3 1.4 0 2.6-.2 4.5-.7l.9-5.4c-1.7.8-3.1 1.2-4.3 1.2-3 0-4.8-2.2-4.8-5.8 0-5.3 2.7-9 6.5-9z"/><path id="XMLID_61_" class="sta3" d="M195.4 70l-1.1 6.9c-1.4-1.8-2.9-3.2-4.9-3.2-2.6 0-4.9 2-6.4 4.8-2.1-.4-4.3-1.2-4.3-1.2.2-1.6.2-2.6.2-2.9h-4.7c-.6 6-1.8 12.1-2.7 18.1l-.2 1.3h5.1c.7-4.5 1.2-8.2 1.6-11.1 1.7-1.6 2.6-2.9 4.4-2.9-.8 1.9-1.2 4.1-1.2 6.3 0 4.8 2.4 8 6.2 8 1.9 0 3.3-.6 4.7-2.1l-.2 1.8h4.8l3.9-23.8h-5.2zM189 89.3c-1.7 0-2.6-1.3-2.6-3.8 0-3.8 1.6-6.5 4-6.5 1.8 0 2.7 1.3 2.7 3.8-.1 3.8-1.7 6.5-4.1 6.5z"/></g><g id="XMLID_5_"><path id="XMLID_59_" class="sta2" d="M74.4 92.4h-5.1l3-18.3-6.6 18.3h-3.4l-.5-18.2-3 18.2H54l4-23.9h7.3l.2 14.8 5-14.8h7.9z"/><path id="XMLID_54_" class="sta2" d="M87 83.7c-.5-.1-.8-.1-1.1-.1-2.9 0-4.4 1-4.4 2.9 0 1.2.7 2 1.8 2 2.1.1 3.6-1.9 3.7-4.8zm3.7 8.7h-4.2l.1-2c-1.3 1.6-3 2.3-5.3 2.3-2.8 0-4.7-2.2-4.7-5.3 0-4.7 3.3-7.5 9-7.5.6 0 1.3.1 2.1.2.2-.6.2-.9.2-1.3 0-1.3-.9-1.8-3.3-1.8-2.5 0-4.6.6-5.4.9.1-.3.7-4.4.7-4.4 2.5-.7 4.2-1 6.1-1 4.4 0 6.7 2 6.7 5.7 0 1-.2 2.2-.4 3.8-.5 2.9-1.5 8.9-1.6 10.4z"/><path id="XMLID_53_" class="sta2" d="M159.1 69.2l-.8 5.2c-1.8-.9-3.1-1.3-4.6-1.3-3.8 0-6.5 3.7-6.5 8.9 0 3.6 1.8 5.8 4.8 5.8 1.3 0 2.6-.4 4.3-1.2l-.9 5.4c-1.9.5-3.1.7-4.5.7-5.5 0-8.9-3.9-8.9-10.3 0-8.5 4.7-14.5 11.5-14.5 2.2 0 4.8 1 5.6 1.3z"/><path id="XMLID_48_" class="sta2" d="M167.3 83.7c-.5-.1-.8-.1-1.1-.1-2.9 0-4.4 1-4.4 2.9 0 1.2.7 2 1.8 2 2.1.1 3.6-1.9 3.7-4.8zm3.7 8.7h-4.2l.1-2c-1.3 1.6-3 2.3-5.3 2.3-2.8 0-4.7-2.2-4.7-5.3 0-4.7 3.3-7.5 8.9-7.5.6 0 1.3.1 2.1.2.2-.6.2-.9.2-1.3 0-1.3-.9-1.8-3.3-1.8-2.5 0-4.5.6-5.4.9.1-.3.7-4.4.7-4.4 2.5-.7 4.2-1 6.1-1 4.4 0 6.7 2 6.7 5.7 0 1-.2 2.2-.4 3.8-.4 2.9-1.4 8.9-1.5 10.4z"/><path id="XMLID_47_" class="sta2" d="M113.3 92.1c-1.4.4-2.5.6-3.7.6-2.6 0-4-1.5-4-4.3 0-.9.4-3.1.7-5.2l2.2-13.2h5.1l-.6 3h2.6l-.7 4.7h-2.6c-.6 3.7-1.4 8.3-1.4 8.9 0 1 .5 1.4 1.7 1.4.6 0 1-.1 1.4-.2l-.7 4.3z"/><path id="XMLID_42_" class="sta2" d="M128.9 91.9c-1.7.5-3.4.8-5.2.8-5.7 0-8.6-3-8.6-8.6 0-6.6 3.8-11.5 8.9-11.5 4.2 0 6.8 2.7 6.8 7 0 1.4-.2 2.8-.6 4.8h-10.1c-.3 2.8 1.5 4 4.4 4 1.8 0 3.5-.4 5.3-1.2l-.9 4.7zM126 80.4c0-.4.5-3.5-2.4-3.5-1.6 0-2.8 1.2-3.2 3.5h5.6z"/><path id="XMLID_41_" class="sta2" d="M93.7 79.1c0 2.5 1.2 4.1 3.9 5.4 2.1 1 2.4 1.3 2.4 2.1 0 1.2-.9 1.8-2.9 1.8-1.5 0-2.9-.2-4.6-.8 0 0-.7 4.3-.7 4.5 1.2.3 2.2.5 5.3.6 5.4 0 7.9-2 7.9-6.5 0-2.7-1-4.2-3.6-5.4-2.1-1-2.4-1.2-2.4-2.1 0-1 .8-1.6 2.5-1.6 1 0 2.4.1 3.7.3l.7-4.5c-1.3-.2-3.3-.4-4.5-.4-5.7.1-7.7 3-7.7 6.6z"/><path id="XMLID_36_" class="sta2" d="M198 92.4h-4.8l.2-1.8c-1.4 1.5-2.8 2.1-4.7 2.1-3.7 0-6.2-3.2-6.2-8 0-6.4 3.8-11.9 8.3-11.9 2 0 3.5.8 4.9 2.6l1.1-6.9h5L198 92.4zm-7.5-4.5c2.4 0 4-2.7 4-6.5 0-2.5-.9-3.8-2.7-3.8-2.3 0-4 2.7-4 6.5 0 2.5.9 3.8 2.7 3.8z"/><path id="XMLID_35_" class="sta2" d="M175.6 73c-.6 6-1.8 12.1-2.7 18.1l-.2 1.3h5.1c1.8-11.8 2.3-14.2 5.1-13.9.5-2.4 1.3-4.5 1.9-5.6-2.1-.4-3.3.8-4.9 3.1.1-1 .3-2 .3-2.9h-4.6z"/><path id="XMLID_34_" class="sta2" d="M133.6 73c-.6 6-1.8 12.1-2.7 18.1l-.2 1.3h5.1c1.8-11.8 2.3-14.2 5.1-13.9.5-2.4 1.3-4.5 1.9-5.6-2.1-.4-3.3.8-4.9 3.1.1-1 .3-2 .3-2.9h-4.6z"/><g id="XMLID_6_"><path id="XMLID_7_" class="sta2" d="M200.2 90.8c0-.8.7-1.5 1.5-1.5s1.5.7 1.5 1.5-.7 1.5-1.5 1.5c-.8.1-1.5-.6-1.5-1.5zm1.5 1.2c.6 0 1.2-.5 1.2-1.2 0-.6-.5-1.2-1.2-1.2-.6 0-1.2.5-1.2 1.2.1.7.6 1.2 1.2 1.2zm-.2-.5h-.3v-1.3h.6c.1 0 .2 0 .3.1.1.1.2.2.2.3 0 .2-.1.3-.2.3l.2.6h-.3l-.2-.5h-.2v.5zm0-.7h.4c.1 0 .1-.1.1-.2s0-.1-.1-.1h-.4v.3z"/></g></g></g></g>
    </symbol>
    <symbol viewBox="0 0 780 500" id="icon-logo-american-express">
        <rect width="780" height="500" fill="#2478bc"></rect> 
        <path d="m0.253 235.69h37.441l8.442-19.51h18.9l8.42 19.51h73.668v-14.915l6.576 14.98h38.243l6.576-15.202v15.138h183.08l-0.085-32.026h3.542c2.479 0.083 3.204 0.302 3.204 4.226v27.8h94.689v-7.455c7.639 3.92 19.518 7.455 35.148 7.455h39.836l8.525-19.51h18.9l8.337 19.51h76.765v-18.532l11.626 18.532h61.515v-122.51h-60.88v14.468l-8.522-14.468h-62.471v14.468l-7.828-14.468h-84.38c-14.123 0-26.539 1.889-36.569 7.153v-7.153h-58.229v7.153c-6.383-5.426-15.079-7.153-24.75-7.153h-212.74l-14.274 31.641-14.659-31.641h-67.005v14.468l-7.362-14.468h-57.145l-26.539 58.246v64.261h3e-3zm236.34-17.67h-22.464l-0.083-68.794-31.775 68.793h-19.24l-31.858-68.854v68.854h-44.57l-8.42-19.592h-45.627l-8.505 19.592h-23.801l39.241-87.837h32.559l37.269 83.164v-83.164h35.766l28.678 59.587 26.344-59.587h36.485l1e-3 87.838zm-165.9-37.823l-14.998-35.017-14.915 35.017h29.913zm255.3 37.821h-73.203v-87.837h73.203v18.291h-51.289v15.833h50.06v18.005h-50.061v17.542h51.289l1e-3 18.166zm103.16-64.18c0 14.004-9.755 21.24-15.439 23.412 4.794 1.748 8.891 4.838 10.84 7.397 3.094 4.369 3.628 8.271 3.628 16.116v17.255h-22.104l-0.083-11.077c0-5.285 0.528-12.886-3.458-17.112-3.202-3.09-8.083-3.76-15.973-3.76h-23.523v31.95h-21.914v-87.838h50.401c11.199 0 19.451 0.283 26.535 4.207 6.933 3.924 11.09 9.652 11.09 19.45zm-27.699 13.042c-3.013 1.752-6.573 1.81-10.841 1.81h-26.62v-19.51h26.982c3.818 0 7.804 0.164 10.393 1.584 2.842 1.28 4.601 4.003 4.601 7.765 0 3.84-1.674 6.929-4.515 8.351zm62.844 51.138h-22.358v-87.837h22.358v87.837zm259.56 0h-31.053l-41.535-65.927v65.927h-44.628l-8.527-19.592h-45.521l-8.271 19.592h-25.648c-10.649 0-24.138-2.257-31.773-9.715-7.701-7.458-11.708-17.56-11.708-33.533 0-13.027 2.395-24.936 11.812-34.347 7.085-7.01 18.18-10.242 33.28-10.242h21.215v18.821h-20.771c-7.997 0-12.514 1.14-16.862 5.203-3.735 3.699-6.298 10.69-6.298 19.897 0 9.41 1.951 16.196 6.023 20.628 3.373 3.476 9.506 4.53 15.272 4.53h9.842l30.884-69.076h32.835l37.102 83.081v-83.08h33.366l38.519 61.174v-61.174h22.445v87.833zm-133.2-37.82l-15.165-35.017-15.081 35.017h30.246zm189.04 178.08c-5.322 7.457-15.694 11.238-29.736 11.238h-42.319v-18.84h42.147c4.181 0 7.106-0.527 8.868-2.175 1.665-1.474 2.605-3.554 2.591-5.729 0-2.561-1.064-4.593-2.677-5.811-1.59-1.342-3.904-1.95-7.722-1.95-20.574-0.67-46.244 0.608-46.244-27.194 0-12.742 8.443-26.156 31.439-26.156h43.649v-17.479h-40.557c-12.237 0-21.129 2.81-27.425 7.174v-7.175h-59.985c-9.595 0-20.854 2.279-26.179 7.175v-7.175h-107.12v7.175c-8.524-5.892-22.908-7.175-29.549-7.175h-70.656v7.175c-6.745-6.258-21.742-7.175-30.886-7.175h-79.077l-18.094 18.764-16.949-18.764h-118.13v122.59h115.9l18.646-19.062 17.565 19.062 71.442 0.061v-28.838h7.021c9.479 0.14 20.66-0.228 30.523-4.312v33.085h58.928v-31.952h2.842c3.628 0 3.985 0.144 3.985 3.615v28.333h179.01c11.364 0 23.244-2.786 29.824-7.845v7.845h56.78c11.815 0 23.354-1.587 32.134-5.649l2e-3 -22.84zm-354.94-47.155c0 24.406-19.005 29.445-38.159 29.445h-27.343v29.469h-42.591l-26.984-29.086-28.042 29.086h-86.802v-87.859h88.135l26.961 28.799 27.875-28.799h70.021c17.389 0 36.929 4.613 36.929 28.945zm-174.22 40.434h-53.878v-17.48h48.11v-17.926h-48.11v-15.974h54.939l23.969 25.604-25.03 25.776zm86.81 10.06l-33.644-35.789 33.644-34.65v70.439zm49.757-39.066h-28.318v-22.374h28.572c7.912 0 13.404 3.09 13.404 10.772 0 7.599-5.238 11.602-13.658 11.602zm148.36-40.373h73.138v18.17h-51.315v15.973h50.062v17.926h-50.062v17.48l51.314 0.08v18.23h-73.139l2e-3 -87.859zm-28.119 47.029c4.878 1.725 8.865 4.816 10.734 7.375 3.095 4.291 3.542 8.294 3.631 16.037v17.418h-22.002v-10.992c0-5.286 0.531-13.112-3.542-17.198-3.201-3.147-8.083-3.899-16.076-3.899h-23.42v32.09h-22.02v-87.859h50.594c11.093 0 19.173 0.47 26.366 4.146 6.915 4.004 11.266 9.487 11.266 19.511-1e-3 14.022-9.764 21.178-15.531 23.371zm-12.385-11.107c-2.932 1.667-6.556 1.811-10.818 1.811h-26.622v-19.732h26.982c3.902 0 7.807 0.08 10.458 1.587 2.84 1.423 4.538 4.146 4.538 7.903 0 3.758-1.699 6.786-4.538 8.431zm197.82 5.597c4.27 4.229 6.554 9.571 6.554 18.613 0 18.9-12.322 27.723-34.425 27.723h-42.68v-18.84h42.51c4.157 0 7.104-0.525 8.95-2.175 1.508-1.358 2.589-3.333 2.589-5.729 0-2.561-1.17-4.592-2.675-5.811-1.675-1.34-3.986-1.949-7.803-1.949-20.493-0.67-46.157 0.609-46.157-27.192 0-12.744 8.355-26.158 31.33-26.158h43.932v18.7h-40.198c-3.984 0-6.575 0.145-8.779 1.587-2.4 1.422-3.29 3.534-3.29 6.319 0 3.314 2.037 5.57 4.795 6.546 2.311 0.77 4.795 0.995 8.526 0.995l11.797 0.306c11.895 0.276 20.061 2.248 25.024 7.065zm86.955-23.52h-39.938c-3.986 0-6.638 0.144-8.867 1.587-2.312 1.423-3.202 3.534-3.202 6.322 0 3.314 1.951 5.568 4.791 6.544 2.312 0.771 4.795 0.996 8.444 0.996l11.878 0.304c11.983 0.284 19.982 2.258 24.86 7.072 0.891 0.67 1.422 1.422 2.033 2.175v-25h1e-3z" fill="#fff"></path>
    </symbol>
    <symbol viewBox="0 0 256 160" id="icon-logo-discover">
        <style>.stb0{fill:#EF7622;}</style>
        <g id="XMLID_282_">
        <path d="M53.9 67.2h-7.4V93h7.4c3.9 0 6.8-.9 9.2-3 3-2.4 4.7-6.1 4.7-9.9 0-7.6-5.7-12.9-13.9-12.9zm5.9 19.4c-1.6 1.4-3.6 2.1-6.9 2.1h-1.4V71.5h1.4c3.3 0 5.2.6 6.9 2.1 1.7 1.6 2.8 4 2.8 6.4 0 2.6-1.1 5-2.8 6.6z"/><path id="XMLID_383_" d="M70.1 67.2h5v25.9h-5z"/><path id="XMLID_386_" d="M87.5 77.1c-3-1.1-3.9-1.9-3.9-3.3 0-1.6 1.6-2.9 3.8-2.9 1.5 0 2.8.6 4.1 2.1l2.6-3.5c-2.2-1.9-4.8-2.9-7.6-2.9-4.6 0-8.1 3.2-8.1 7.4 0 3.6 1.6 5.4 6.4 7.1 2 .7 3 1.2 3.5 1.5 1 .7 1.5 1.6 1.5 2.7 0 2.1-1.7 3.7-3.9 3.7-2.4 0-4.3-1.2-5.5-3.5l-3.3 3.1c2.3 3.4 5.1 4.9 9 4.9 5.2 0 8.9-3.5 8.9-8.5-.1-3.9-1.8-5.8-7.5-7.9z"/><path id="XMLID_387_" d="M96.5 80.1c0 7.6 6 13.5 13.7 13.5 2.2 0 4-.4 6.3-1.5v-5.9c-2 2-3.8 2.8-6.1 2.8-5.1 0-8.7-3.7-8.7-8.9 0-5 3.7-8.9 8.5-8.9 2.4 0 4.2.9 6.3 2.9v-5.9c-2.2-1.1-4-1.6-6.2-1.6-7.6 0-13.8 6-13.8 13.5z"/><path id="XMLID_388_" d="M156.6 84.5l-6.9-17.3h-5.6l11 26.5h2.7L169 67.2h-5.4z"/><path id="XMLID_389_" d="M171.3 93h14.3v-4.3h-9.2v-7h8.9v-4.4h-8.9v-5.8h9.2v-4.3h-14.3z"/><path d="M205.6 74.8c0-4.8-3.3-7.6-9.2-7.6H189V93h5V82.6h.7l7 10.4h6.2l-8.1-10.9c3.7-.7 5.8-3.3 5.8-7.3zm-10.1 4.3H194v-7.8h1.6c3.1 0 4.9 1.3 4.9 3.8-.1 2.6-1.8 4-5 4z"/><path id="XMLID_390_" class="stb0" d="M145.7 80.1c0 7.6-6.2 13.8-13.8 13.8-7.6 0-13.8-6.2-13.8-13.8 0-7.6 6.2-13.8 13.8-13.8 7.6.1 13.8 6.2 13.8 13.8z"/><path d="M208.3 67.7c0-.5-.3-.7-.9-.7h-.7v2.3h.5v-.9l.6.9h.7l-.7-.9c.3-.2.5-.4.5-.7zm-.9.3l-.1-.6h.1c.3 0 .4.1.4.3 0 .2-.2.3-.4.3z"/><path d="M207.6 66.1c-1.1 0-2 .9-2 2s.9 2 2 2 2-.9 2-2c-.1-1.1-1-2-2-2zm0 3.6c-.9 0-1.6-.7-1.6-1.6 0-.9.7-1.6 1.6-1.6.9 0 1.6.7 1.6 1.6-.1.9-.8 1.6-1.6 1.6z"/>
        <path id="XMLID_382_" class="stb0" d="M255.8 110.4s-48.5 34.2-137.4 49.6h137.4v-49.6z"/>
        </g>
    </symbol>
    <symbol viewBox="0 0 256 160" id="icon-logo-cirrus">
        <g id="Layer_1"><g id="XMLID_145_"><g id="XMLID_146_"><g id="XMLID_147_"><g id="XMLID_148_">
            <path id="XMLID_149_" class="st0" fill="#FFFFFF" d="M200.2 106.2c0-.8.7-1.5 1.5-1.5s1.5.7 1.5 1.5-.7 1.5-1.5 1.5-1.5-.7-1.5-1.5zm1.5 1.1c.6 0 1.2-.5 1.2-1.2 0-.6-.5-1.2-1.2-1.2-.6 0-1.2.5-1.2 1.2.1.7.6 1.2 1.2 1.2zm-.2-.5h-.3v-1.3h.6c.1 0 .2 0 .3.1.1.1.2.2.2.3 0 .2-.1.3-.2.3l.2.6h-.3l-.2-.5h-.2v.5zm0-.7h.4c.1 0 .1-.1.1-.2 0 0 0-.1-.1-.1h-.4v.3z"/></g></g></g></g><g id="XMLID_158_"><g id="XMLID_159_"><circle id="XMLID_160_" class="st1" fill="#007DC5" cx="96.5" cy="80" r="47"/><g id="XMLID_161_"><path id="XMLID_162_" class="st2" fill="#00A2E5" d="M159.5 33c-12.1 0-23.2 4.6-31.5 12.2-1.7 1.5-3.3 3.2-4.7 5h9.5c1.3 1.6 2.5 3.2 3.6 5h-16.6c-1 1.6-1.9 3.3-2.7 5H139c.8 1.6 1.4 3.3 2 5h-26c-.5 1.6-1 3.3-1.4 5h28.8c.7 3.2 1.1 6.5 1.1 9.9 0 5.2-.9 10.2-2.4 14.9h-26c.6 1.7 1.2 3.4 2 5H139c-.8 1.7-1.7 3.4-2.7 5h-16.6c1.1 1.7 2.3 3.4 3.6 5h9.5c-1.5 1.8-3 3.4-4.7 5 8.3 7.6 19.4 12.2 31.5 12.2 25.9 0 47-21 47-47-.1-26.1-21.1-47.2-47.1-47.2z"/></g></g><g id="XMLID_163_"><g id="XMLID_164_"><g id="XMLID_165_"><g id="XMLID_166_"><path id="XMLID_167_" class="st3" d="M93.8 69.2c-.4 1.8-.6 2.9-1.2 5.1-3.5-1.5-8.3-2.3-11.9 0-3.4 2.2-4.6 5.6-4.3 9.4.3 1.8 1.6 3.6 3.5 4.4 3.3 1.2 6.5.8 10-1-.5 2.3-.9 4.1-1.3 5.7-4.2 1.2-8.3 1.6-12.5.2-3.8-1.3-6.9-4.7-7.1-8.4-.9-5.9 2-11.9 7.7-14.7 5.3-2.5 11.4-2.1 17.1-.7z"/></g><path id="XMLID_168_" class="st3" fill="#003375" d="M153.6 90.2c-1.1 1.1-3 3.6-8.2 3.6-4.7 0-8-3.5-6.3-11.2l1.9-9.2h7.2l-1.9 9.2c-.7 3.1-.5 5.5 2.7 5.5 3.7 0 4.8-2.3 5.5-5.5l1.9-9.2h7.5l-3.2 14.7c-.4 1.7-.7 3.6-.9 5.4H153s.5-2.5.6-3.3z"/><path id="XMLID_170_" class="st3" d="M166.3 79.8c0 2.5 1.7 4.3 5.5 5.6 2.9 1 3.4 1.3 3.4 2.2 0 1.3-1.3 1.8-4.1 1.8-2.2 0-4.1-.2-6.5-.8 0 0-.9 4.2-1 4.6 2 .4 5.5.6 7.5.6 7.6 0 11.1-2.1 11.1-6.7 0-2.7-1.5-4.3-5.1-5.6-3-1-3.4-1.2-3.4-2.2 0-1.1 1.2-1.6 3.5-1.6 1.4 0 3.4.1 5.2.3l1-4.7c-1.9-.2-4.7-.4-6.3-.4-8 .1-10.8 3.2-10.8 6.9z"/><path id="XMLID_171_" class="st3" d="M96.5 73.4h7.5l-4.3 20.1h-7.5z"/><path id="XMLID_172_" class="st3" d="M139.3 73.3c-5.3-.7-6.8 1.9-8.2 3.2.2-1 .5-2.1.4-3.1h-6.9c-.9 6.2-2.6 12.5-3.9 18.7l-.3 1.3h7.8c.9-4.1 1.9-10.2 3.1-12.1 1.2-1.9 3.2-3.3 5.8-2.5l2.2-5.5z"/><path id="XMLID_173_" class="st3" d="M123 73.3c-5.3-.7-6.8 1.9-8.2 3.2.2-1 .5-2.1.4-3.1h-6.9c-.9 6.2-2.6 12.5-3.9 18.7l-.3 1.3h7.8c.9-4.1 1.9-10.2 3.1-12.1 1.2-1.9 3.2-3.3 5.8-2.5l2.2-5.5z"/></g></g><g id="XMLID_174_"><path id="XMLID_175_" class="st0" d="M184.5 90.5c0-.8.7-1.5 1.5-1.5s1.5.7 1.5 1.5-.7 1.5-1.5 1.5c-.9 0-1.5-.7-1.5-1.5zm1.5 1.1c.6 0 1.2-.5 1.2-1.2 0-.6-.5-1.2-1.2-1.2-.6 0-1.2.5-1.2 1.2s.5 1.2 1.2 1.2zm-.2-.4h-.3v-1.3h.6c.1 0 .2 0 .3.1.1.1.2.2.2.3 0 .1-.1.3-.2.3l.2.6h-.3l-.2-.5h-.2v.5zm0-.8h.4c.1 0 .1-.1.1-.2s0-.1-.1-.1h-.4v.3z"/><path id="XMLID_184_" class="st0" d="M95.2 67.8c-.4 1.8-.6 2.9-1.2 5.1-3.5-1.5-8.3-2.3-11.9 0-3.4 2.2-4.6 5.6-4.3 9.4.3 1.8 1.6 3.6 3.5 4.4 3.3 1.2 6.5.8 10-1-.5 2.3-.9 4.1-1.3 5.7-4.2 1.2-8.3 1.6-12.5.2-3.8-1.3-6.9-4.7-7.1-8.4-.9-5.9 2-11.9 7.7-14.7 5.4-2.6 11.5-2.2 17.1-.7z"/><path id="XMLID_185_" class="st0" d="M155.1 88.8c-1.1 1.1-3 3.6-8.2 3.6-4.7 0-7.7-3.5-6-11.2l1.9-9.2h7.2l-1.9 9.2c-.7 3.1-.5 5.5 2.7 5.5 3.7 0 4.8-2.3 5.5-5.5l1.9-9.2h7.2l-3.2 14.7c-.4 1.7-.7 3.6-.9 5.4h-6.7c-.1-.1.3-2.5.5-3.3z"/><path id="XMLID_187_" class="st0" d="M167.8 78.3c0 2.5 1.7 4.3 5.5 5.6 2.9 1 3.4 1.3 3.4 2.2 0 1.3-1.3 1.8-4.1 1.8-2.2 0-4.1-.2-6.5-.8 0 0-.9 4.2-1 4.6 2 .4 5.5.6 7.5.6 7.6 0 11.1-2.1 11.1-6.7 0-2.7-1.5-4.3-5.1-5.6-3-1-3.4-1.2-3.4-2.2 0-1.1 1.2-1.6 3.5-1.6 1.4 0 3.4.1 5.2.3l1-4.7c-1.9-.2-4.7-.4-6.3-.4-8.1.1-10.9 3.2-10.8 6.9z"/><path id="XMLID_188_" class="st0" d="M98.3 71.9h7.2L101.2 92H94z"/><path id="XMLID_189_" class="st0" d="M140.8 71.9c-5.3-.7-6.8 1.9-8.2 3.2.2-1 .5-2.1.4-3.1h-6.6c-.9 6.2-2.6 12.5-3.9 18.7l-.3 1.3h7.5c.9-4.1 1.9-10.2 3.1-12.1 1.2-1.9 3.2-3.3 5.8-2.5l2.2-5.5z"/><path id="XMLID_190_" class="st0" d="M124.5 71.9c-5.3-.7-6.8 1.9-8.2 3.2.2-1 .5-2.1.4-3.1h-6.6c-.9 6.2-2.6 12.5-3.9 18.7l-.3 1.3h7.5c.9-4.1 1.9-10.2 3.1-12.1 1.2-1.9 3.2-3.3 5.8-2.5l2.2-5.5z"/></g></g></g></g>
    </symbol>
    <symbol viewBox="0 0 128 80" id="icon-logo-paypal">
        <path d="M128 75.732c0 2.358-1.91 4.268-4.266 4.268H4.268C1.91 80 0 78.09 0 75.732V4.267C0 1.907 1.91 0 4.268 0h119.467C126.09 0 128 1.908 128 4.267v71.465z" fill="#ffffff"/><path d="M88.65 35.678c-.81-.45-2.074-.68-3.807-.68-.856 0-1.716.068-2.58.203-.635.098-.7.113-1.093.198-.81.178-.937.987-.937.987l-.26 1.072c-.147.684.242.655.415.603.354-.107.546-.214 1.27-.377.69-.155 1.417-.274 1.998-.27.854 0 1.502.094 1.934.273.43.19.645.508.645.967.002.11.004.21-.034.302-.035.085-.103.165-.31.192-1.215.07-2.088.184-3.14.338-1.038.146-1.946.396-2.706.742-.81.36-1.415.84-1.833 1.448-.404.612-.608 1.353-.61 2.226 0 .825.296 1.498.87 2.02.58.517 1.335.77 2.248.77.57-.003 1.017-.044 1.335-.124.317-.08.663-.192 1.027-.35.272-.116.567-.28.877-.487.312-.208.527-.355.805-.537l.01.017-.08.345c0 .003-.004.005-.004.007l.003.007c-.09.41.16.755.57.798l.005.007h.035l.003.002c.27 0 1.203 0 1.64-.002h.303c.02 0 .023-.007.03-.013.417-.05.818-.39.913-.8l1.555-6.715c.035-.158.064-.34.08-.552.02-.212.044-.386.038-.513.002-.95-.407-1.653-1.212-2.104zm-3.77 8.003c-.265.167-.544.31-.837.433-.394.157-.766.24-1.11.24-.53 0-.938-.075-1.213-.234-.275-.153-.42-.417-.415-.795 0-.436.102-.775.31-1.04.21-.256.52-.462.908-.615.386-.13.86-.238 1.404-.314.487-.062 1.448-.173 1.57-.173.123 0 .204-.07.15.258-.024.144-.303 1.282-.43 1.8-.037.154-.243.38-.337.44z" fill="#34679A"/><path d="M61.88 35.146c-.455 0-1.055.37-1.338.814 0 0-3.055 5.236-3.354 5.76-.163.28-.33.103-.357-.002-.02-.128-.942-5.722-.942-5.722-.106-.45-.576-.837-1.165-.835l-1.902.004c-.46 0-.746.367-.644.812 0 0 1.456 8.25 1.74 10.188.14 1.072-.016 1.264-.016 1.264l-1.887 3.29c-.276.444-.125.812.332.812h2.207c.456 0 1.06-.365 1.335-.813l8.486-14.356s.81-1.226.062-1.215c-.507.01-2.556 0-2.556 0M35.084 38.065c-.644.47-1.532.705-2.69.705h-.522c-.46 0-.75-.365-.647-.814l.64-2.764c.098-.445.557-.815 1.02-.81l.696-.006c.814 0 1.434.14 1.854.417.41.27.62.695.61 1.27.012.863-.315 1.53-.96 2.002m4.6-4.26c-.264-.517-.66-.937-1.168-1.253-.525-.325-1.137-.548-1.85-.684-.718-.128-1.554-.19-2.516-.2l-4.447.004c-.463.006-.915.368-1.022.81l-2.998 13.042c-.104.444.185.813.646.813h2.133c.46 0 .918-.36 1.02-.813l.734-3.165c.098-.443.555-.81 1.017-.81h.61c2.605-.004 4.627-.537 6.08-1.604 1.45-1.063 2.174-2.475 2.172-4.223.002-.765-.13-1.406-.407-1.918" fill="#1C3665"/><path d="M73.772 38.118c-.64.464-1.535.697-2.688.697h-.53c-.46.004-.754-.366-.645-.812l.64-2.767c.095-.438.56-.812 1.01-.807l.7-.006c.82.005 1.432.142 1.855.412.414.276.615.703.618 1.27 0 .87-.32 1.537-.96 2.012m4.598-4.267c-.266-.515-.665-.93-1.173-1.255-.52-.322-1.137-.548-1.853-.68-.706-.124-1.55-.195-2.506-.197l-4.458.002c-.46.008-.91.37-1.017.813l-2.995 13.04c-.11.445.187.815.64.813l2.14-.003c.45.003.914-.364 1.02-.81l.724-3.162c.1-.443.562-.815 1.023-.808h.607c2.61 0 4.634-.536 6.082-1.604 1.445-1.072 2.172-2.477 2.172-4.227-.003-.763-.133-1.407-.405-1.92" fill="#34679A"/><path d="M49.955 35.666c-.81-.45-2.073-.68-3.806-.68-.857 0-1.717.07-2.582.204-.634.098-.697.113-1.093.2-.81.176-.935.986-.935.986l-.26 1.07c-.148.685.243.655.416.602.353-.106.546-.21 1.267-.375.688-.158 1.418-.273 2-.27.853 0 1.5.093 1.932.273.432.188.645.51.645.967.003.11.006.213-.034.3-.035.087-.104.166-.31.194-1.214.073-2.086.185-3.142.337-1.04.146-1.945.396-2.705.743-.81.36-1.414.84-1.832 1.45-.408.61-.612 1.35-.612 2.224 0 .826.297 1.497.87 2.02.58.515 1.335.77 2.247.77.57-.004 1.016-.046 1.338-.126.315-.08.662-.193 1.026-.35.273-.115.566-.28.878-.487.31-.206.528-.354.803-.535l.01.016-.078.343c0 .006-.005.008-.005.012l.003.006c-.09.413.158.756.568.796l.004.008h.036v.005l1.64-.005h.306c.02 0 .023-.007.03-.01.418-.055.818-.392.913-.8l1.556-6.718c.036-.157.065-.34.08-.55.02-.213.044-.387.037-.512.004-.95-.405-1.653-1.212-2.106zm-3.77 8.005c-.264.168-.542.31-.838.432-.392.157-.767.24-1.11.24-.527 0-.938-.074-1.212-.233-.275-.153-.42-.418-.416-.795 0-.437.1-.775.31-1.04.21-.258.52-.463.907-.615.386-.132.86-.237 1.405-.315.486-.062 1.447-.17 1.57-.172.122 0 .204-.07.15.257-.025.144-.302 1.282-.43 1.8-.037.155-.243.38-.336.44z" fill="#1C3665"/><path d="M95.997 31.825H94.09h-.002c-.44 0-.874.335-1 .76-.006.018-.02.033-.023.052l-.066.305-2.674 12.114c-.062.278-.104.46-.117.506l.005.008c-.088.41.16.744.562.788l.012.017h1.978c.432 0 .866-.334.992-.752.007-.02.022-.04.027-.06l2.858-12.928h-.004c.096-.443-.187-.81-.643-.81z" fill="#34679A"/>
    </symbol>
    <symbol viewBox="-0.439 -0.879 128 55" id="icon-logo-sage">
        <defs>
        </defs>
        <path fill-rule="evenodd" clip-rule="evenodd" fill="#ffffff" d="M57.209,25.225v-2.737H46.658c-5.177,0-7.584,1.781-7.584,4.518
            c0,2.539,2.308,4.748,8.276,4.748C54.703,31.753,57.209,31.094,57.209,25.225L57.209,25.225L57.209,25.225z M34.655,6.858
            l-3.726,3.759c-3.462-2.077-6.99-3.495-11.738-3.495c-5.639,0-7.518,1.913-7.518,4.517c0,1.649,1.352,3.265,5.771,3.562l7.254,0.461
            c4.484,0.231,7.65,1.517,9.694,3.495c2.374-2.044,5.935-3.331,10.617-3.331h12.2v-3.858c0-3.561-2.671-4.814-9.001-4.814
            c-4.583,0-7.551,1.352-9.859,3.496L34.655,6.858L34.655,6.858z M100.206,16.388h20.378c0-6.529-4.847-9.76-10.222-9.76
            S100.206,9.826,100.206,16.388L100.206,16.388L100.206,16.388z M69.706,19.257c0.099,6.166,0.198,7.122,1.78,8.836
            c1.253,1.353,3.957,2.935,7.617,2.935c3.561,0,5.869-1.583,7.122-2.935c1.583-1.714,1.78-2.77,1.78-8.836
            c0-6.133-0.197-7.188-1.78-8.903c-1.253-1.352-3.562-2.935-7.122-2.935c-3.66,0-6.364,1.583-7.617,2.935
            C69.904,12.068,69.64,13.058,69.706,19.257L69.706,19.257L69.706,19.257z M64.167,5.737c0.297-0.362,0.593-0.725,0.957-1.121
            C67.101,2.474,70.992,0,76.696,0c4.484,0,8.046,1.484,11.31,4.452v-3.99h8.837v4.122C100.338,1.286,105.021,0,109.406,0
            c9.661,0,17.97,6.628,18.003,17.707c0.033,1.912-0.197,5.309-0.197,5.309h-27.006c0,6.133,4.188,8.441,10.222,8.441
            c3.363,0,7.617-1.517,10.189-3.825l5.935,4.319c-4.319,4.287-10.09,6.595-15.959,6.595c-4.813,0-9.99-1.121-13.75-4.551v3.166
            c0,11.343-9.001,16.553-19.025,16.553c-5.605,0-11.31-2.539-15.201-6.298l6.826-4.682c2.143,1.846,5.177,3.396,8.54,3.396
            c5.902,0,10.023-2.869,10.023-8.145v-3.858c-2.736,2.605-6.825,4.386-11.31,4.386c-4.946,0-8.507-1.847-10.683-3.726v3.792h-8.804
            v-3.825h-0.165c-1.813,2.605-4.847,3.792-10.815,3.792c-5.573,0-9.826-1.616-12.431-4.221c-3.297,2.704-8.54,4.155-14.541,4.155
            c-7.089,0-13.651-2.209-19.257-6.727l6.133-5.209c3.792,3.198,7.947,4.847,13.816,4.847c5.012,0,8.639-1.649,8.639-4.847
            c0-2.671-2.341-3.462-5.342-3.693l-7.782-0.593C8.211,21.729,2.836,18.037,2.836,11.574C2.836,3.924,9.925,0,19.191,0
            c6.661,0,11.441,1.517,15.431,3.957c3.232-2.901,7.452-3.924,13.157-3.924C55.396,0.033,61.331,1.583,64.167,5.737L64.167,5.737z"/>
    </symbol>
    <symbol viewBox="21.4 22.1 236.6 197.9" id="icon-logo-google-wallet">
        <g id="g3025">
            <path id="path34" fill="#1476C6" d="M111.1,105.6C100.5,91,85.8,78.2,69.1,69.3c-2.5-1.4-5.4-2.1-8.3-2.1c-6.5,0-12.4,3.5-15.5,9.3
                c-4.6,8.5-1.3,19.2,7.2,23.7c25.7,13.8,42.3,40,44.3,70.4c0,0,0-0.1,0-0.1c-0.3-3.4,0.3-6.7,1.8-9.8c0.2-0.4,0.5-0.9,0.8-1.4
                c8-13.2,12.3-28.4,12.3-44C111.7,112,111.4,108.8,111.1,105.6"/>
            <path id="path36" fill="#47AE33" d="M212.9,72.6c-3.1-13.6-7.7-26.8-13.7-39.4c-3.2-6.7-10.1-11.1-17.5-11.1
                c-2.9,0-5.7,0.6-8.3,1.9c-9.7,4.6-13.8,16.2-9.2,25.8c9.8,20.8,14.7,42.7,14.7,65.5c0,22.8-4.9,44.7-14.5,65.1
                c-0.1,0.3-1.8,3.9-1.8,8.1c0,1.2,0.1,2.9,0.5,4.5c1.3,5.5,4.8,10.5,10.6,13.2c2.6,1.2,5.4,1.9,8.3,1.9c7.1,0,13.6-3.9,17-10.1
                c3.9-7.3,7.8-16.8,11.2-29.1c1.1-3.7,2-7.2,2.8-10.9c3.1-13.9,4.8-28.1,4.8-42.7C217.7,100.9,216,86.4,212.9,72.6"/>
            <path id="path38" fill="#ED114C" d="M131,52.3c-0.3-0.6-0.7-1.1-1.1-1.6c-1.3-1.7-2.8-3.1-4.6-4.2c-2.9-1.9-6.4-3-10-3
                c-3,0-4.5,0.4-6.6,1.2c-2.2,0.9-4.5,2.1-6.6,4.3c-2.1,2.2-3.3,4.4-4.2,6.8c-1.8,4.7-1.5,10.8,1.5,15.8
                c6.4,10.3,10.2,22.1,11.6,34.2c0.4,3.2,0.6,6.5,0.6,9.7c0,15.6-4.2,30.8-12.3,44c-0.3,0.5-0.5,0.9-0.8,1.4
                c-1.6,3.1-2.1,6.6-1.8,9.9c0.5,5.6,3.6,10.9,8.8,14.1c1.3,0.8,2.8,1.4,4.2,1.9c1.7,0.5,3.5,0.8,5.3,0.8c6.5,0,12.4-3.3,15.8-8.9
                c10.2-16.7,16.1-35.7,17.4-55.2c0.2-2.6,0.3-5.3,0.3-7.9C148.6,93,142.5,71.2,131,52.3"/>
            <path id="path40" fill="#FBBF16" d="M164.3,180.4c9.7-20.4,14.6-42.3,14.6-65.1c0-7.8-0.5-13.5-0.9-17.2
                c-12.7-20.3-31.1-38.5-52.7-51.7c0,0,0.5,0.3,0.5,0.4c1.5,1.1,2.7,2.2,4.1,3.9c0.3,0.4,0.8,1,1.1,1.6c11.5,19,17.5,40.7,17.5,63
                c0,2.7-0.1,5.3-0.3,7.9c9.2,17.5,14.2,37.4,14.2,58.3c0,1.7,0,4.3,0,6.3c0.1-2.2,0.6-4.5,1.4-6.5
                C164.1,181,164.2,180.7,164.3,180.4"/>
        </g>
    </symbol>
    <symbol viewBox="0 0 192 185" id="icon-logo-western-union">
        <g fill-rule="evenodd" clip-rule="evenodd">
        <path fill="#f7de4b" d="M0 0h256.756v192.756H0V0z"/>
        <path fill="#000000" d="M175.152 114.543h-1.422V78.647h1.422v35.896zM157.971 114.434h-1.422V78.537h1.422v35.897zM25.459 94.588l1.428-10.352 1.45 10.352h6.975l3.384-15.985h-5.455l-1.497 10.109-1.496-10.109h-6.653l-1.496 9.842-1.474-9.842H14.94l3.43 15.985h7.089zM41.432 94.588h13.884v-4.157h-6.993v-1.89h6.596v-4.113h-6.596v-1.712h6.764v-4.113H41.432v15.985zM58.304 89.453c-.024.2-.024.4-.024.578 0 3.046 2.764 4.829 7.971 4.829 5.132 0 7.926-1.834 7.926-5.214 0-2.912-1.637-3.775-5.725-5.152-2.183-.735-3.449-.696-3.449-1.808 0-.6.383-1.036 1.296-1.036 1.079 0 1.604.713 1.555 1.762h5.897v-.673c0-2.823-2.554-4.525-7.267-4.525-5.182 0-7.933 2.013-7.933 5.148 0 2.246 1.394 3.545 4.256 4.366 2.097.602 3.303 1.098 4.214 1.5.481.213.641.688.574 1.139-.093.622-.467 1.005-1.414 1.005-1.16 0-1.486-.696-1.486-1.785v-.133h-6.391v-.001zM91.113 78.603H75.91v4.269h4.233v11.716h6.763V82.872h4.207v-4.269zM94.023 94.588h13.883v-4.157h-6.992v-1.89h6.531v-4.113h-6.531v-1.712h6.764v-4.113H94.023v15.985zM112.137 94.588h6.652v-5.694c.223-.022.443-.022.615-.022 1.596 0 1.834.58 2.086 2.315l.174 1.178c.098.711.293 1.445.516 2.223h6.752c-.295-1.178-.516-2.134-.613-2.846l-.223-1.712c-.299-2.314-1.18-3.183-2.969-3.539 1.824-.448 3.191-1.824 3.191-3.744 0-3.198-2.018-4.146-6.877-4.146h-9.305v15.987h.001zm6.652-9.62v-2.786c.297-.022.541-.022.762-.022 1.498 0 2.162.365 2.162 1.358 0 1.016-.836 1.473-2.432 1.473-.146 0-.318 0-.492-.023zM137.5 85.469l3.568 9.119h7.737V78.603h-5.227v8.139l-2.953-8.139h-8.35v15.985h5.225v-9.119zM84.588 104.547l3.568 9.119h7.735V97.682h-5.226v8.138l-2.952-8.138h-8.351v15.984h5.226v-9.119zM137.662 104.547l3.568 9.119h7.735V97.682h-5.227v8.138l-2.951-8.138h-8.351v15.984h5.226v-9.119zM58.671 97.682v9.631c0 1.842.122 3.287 1.543 4.666 1.471 1.422 3.604 1.959 6.643 1.959 5.588 0 8.209-2.094 8.209-6.625v-9.631h-6.642v9.875c0 1.309-.588 2.02-1.568 2.02-1.03 0-1.569-.666-1.569-2.02v-9.875h-6.616zM107.049 97.682h-6.811v15.986h6.811V97.682zM119.52 113.916c6.059 0 9.301-2.932 9.301-8.357 0-5.336-3.268-8.377-9.076-8.377-5.859 0-9.15 3.041-9.15 8.4-.001 5.313 3.264 8.334 8.925 8.334zm.199-13.023c1.57 0 1.945 1.387 1.945 4.414 0 3.379-.4 4.918-1.971 4.918-1.545 0-1.943-1.514-1.943-4.59 0-3.229.348-4.742 1.969-4.742zM182.48 78.372c-.701 0-1.332.253-1.809.739a2.66 2.66 0 0 0-.791 1.868c0 .688.268 1.325.762 1.826.5.508 1.143.783 1.838.783.682 0 1.34-.275 1.854-.776a2.498 2.498 0 0 0 .762-1.833 2.6 2.6 0 0 0-.754-1.832 2.565 2.565 0 0 0-1.862-.775zm2.268 2.629c0 .6-.23 1.158-.658 1.571a2.291 2.291 0 0 1-1.623.666c-.578 0-1.15-.238-1.58-.673a2.254 2.254 0 0 1-.664-1.586c0-.593.244-1.173.688-1.622a2.177 2.177 0 0 1 1.578-.645c.623 0 1.182.232 1.615.674.419.419.644.984.644 1.615zm-2.193-1.55h-1.115v2.956h.557v-1.261h.551l.6 1.261h.625l-.66-1.348c.428-.087.674-.377.674-.797-.002-.536-.408-.811-1.232-.811zm-.104.362c.523 0 .762.145.762.507 0 .347-.238.471-.746.471h-.471v-.978h.455z"/></g>
    </symbol>
    <symbol viewBox="0 0 34 32" id="icon-pinterest">
        <path d="M1.356 15.647c0 6.24 3.781 11.6 9.192 13.957-0.043-1.064-0.008-2.341 0.267-3.499 0.295-1.237 1.976-8.303 1.976-8.303s-0.491-0.973-0.491-2.411c0-2.258 1.319-3.945 2.962-3.945 1.397 0 2.071 1.041 2.071 2.288 0 1.393-0.895 3.477-1.356 5.408-0.385 1.616 0.817 2.935 2.424 2.935 2.909 0 4.869-3.708 4.869-8.101 0-3.34-2.267-5.839-6.39-5.839-4.658 0-7.56 3.447-7.56 7.297 0 1.328 0.394 2.264 1.012 2.989 0.284 0.333 0.324 0.467 0.221 0.849-0.074 0.28-0.243 0.955-0.313 1.223-0.102 0.386-0.417 0.524-0.769 0.381-2.145-0.869-3.145-3.201-3.145-5.822 0-4.329 3.679-9.519 10.975-9.519 5.863 0 9.721 4.21 9.721 8.729 0 5.978-3.349 10.443-8.285 10.443-1.658 0-3.217-0.889-3.751-1.899 0 0-0.892 3.511-1.080 4.189-0.325 1.175-0.963 2.349-1.546 3.264 1.381 0.405 2.84 0.625 4.352 0.625 8.48 0 15.355-6.822 15.355-15.238s-6.876-15.238-15.355-15.238c-8.48 0-15.356 6.822-15.356 15.238z" />
    </symbol>
    <symbol viewBox="0 0 26 28" id="icon-print">
        <path d="M0 21.5v-6.5q0-1.234 0.883-2.117t2.117-0.883h1v-8.5q0-0.625 0.438-1.062t1.062-0.438h10.5q0.625 0 1.375 0.313t1.188 0.75l2.375 2.375q0.438 0.438 0.75 1.188t0.313 1.375v4h1q1.234 0 2.117 0.883t0.883 2.117v6.5q0 0.203-0.148 0.352t-0.352 0.148h-3.5v2.5q0 0.625-0.438 1.062t-1.062 0.438h-15q-0.625 0-1.062-0.438t-0.438-1.062v-2.5h-3.5q-0.203 0-0.352-0.148t-0.148-0.352zM6 24h14v-4h-14v4zM6 14h14v-6h-2.5q-0.625 0-1.062-0.438t-0.438-1.062v-2.5h-10v10zM22 15q0 0.406 0.297 0.703t0.703 0.297 0.703-0.297 0.297-0.703-0.297-0.703-0.703-0.297-0.703 0.297-0.297 0.703z" />
    </symbol>
    <symbol viewBox="0 0 24 24" id="icon-remove">
        <path d="M19 13H5v-2h14v2z" />
    </symbol>
    <symbol viewBox="0 0 32 32" id="icon-rss">
        <path d="M-0.465347858,2.01048219 C-0.465347858,2.01048219 28.7009958,0.574406533 31,31.3201126 L25.1092027,31.3201126 C25.1092027,31.3201126 26.2597741,8.90749482 -0.465347858,6.89506416 L-0.465347858,2.01048219 L-0.465347858,2.01048219 Z M-0.465347858,12.2127144 C-0.465347858,12.2127144 16.6328276,11.6363594 19.9369779,31.3201126 L14.0472499,31.3201126 C14.0472499,31.3201126 13.3297467,19.6839434 -0.465347858,17.0940884 L-0.465347858,12.2127144 L-0.465347858,12.2127144 Z M2.73614917,25.0304648 C4.79776783,25.0304648 6.47229834,26.7007181 6.47229834,28.766614 C6.47229834,30.8282326 4.79776783,32.5016938 2.73614917,32.5016938 C0.6723919,32.5016938 -1,30.8293019 -1,28.766614 C-1,26.7017874 0.6723919,25.0304648 2.73614917,25.0304648 Z" id="rss-Shape" />
    </symbol>
    <symbol viewBox="0 0 306 306" id="icon-star">
       <polygon points="153,230.775 247.35,299.625 211.65,187.425 306,121.125 191.25,121.125 153,6.375 114.75,121.125 0,121.125 94.35,187.425 58.65,299.625 "/>
   </symbol>
    <symbol viewBox="0 0 24 24" id="icon-stumbleupon"><path d="M13.271 9.231l1.581.88 2.502-.846v-1.696c0-2.925-2.445-5.202-5.354-5.202-2.897 0-5.354 2.129-5.354 5.17v7.749c0 .702-.568 1.27-1.27 1.27s-1.271-.568-1.271-1.27v-3.284h-4.105v3.328c0 2.963 2.402 5.365 5.365 5.365 2.937 0 5.323-2.361 5.364-5.288v-7.653c0-.702.569-1.27 1.271-1.27s1.271.568 1.271 1.27v1.477zm6.624 2.772v3.437c0 .702-.569 1.27-1.271 1.27s-1.271-.568-1.271-1.27v-3.372l-2.502.847-1.581-.881v3.344c.025 2.941 2.418 5.317 5.364 5.317 2.963 0 5.365-2.402 5.365-5.365v-3.328h-4.104z"/></symbol>
    <symbol viewBox="0 0 32 32" id="icon-tumblr">
        <path d="M23.852762,25.5589268 C23.2579209,25.8427189 22.1195458,26.089634 21.2697728,26.1120809 C18.7092304,26.1810247 18.2121934,24.3131275 18.1897466,22.9566974 L18.1897466,12.9951133 L24.6159544,12.9951133 L24.6159544,8.15140729 L18.2137967,8.15140729 L18.2137967,0 L13.5256152,0 C13.4486546,0 13.3139736,0.0673405008 13.2963368,0.238898443 C13.0221648,2.73370367 11.8533261,7.11243957 7,8.86168924 L7,12.9951133 L10.2387574,12.9951133 L10.2387574,23.4521311 C10.2387574,27.0307977 12.8794671,32.1166089 19.8508122,31.9979613 C22.2013164,31.9578777 24.8131658,30.9718204 25.3919735,30.1236507 L23.852762,25.5589268" />
    </symbol>
    <symbol viewBox="0 0 43 32" id="icon-twitter">
        <path d="M36.575 5.229c1.756-0.952 3.105-2.46 3.74-4.257-1.644 0.882-3.464 1.522-5.402 1.867-1.551-1.495-3.762-2.429-6.209-2.429-4.697 0-8.506 3.445-8.506 7.694 0 0.603 0.075 1.19 0.22 1.753-7.069-0.321-13.337-3.384-17.532-8.039-0.732 1.136-1.152 2.458-1.152 3.868 0 2.669 1.502 5.024 3.784 6.404-1.394-0.040-2.706-0.386-3.853-0.962-0.001 0.032-0.001 0.064-0.001 0.097 0 3.728 2.932 6.837 6.823 7.544-0.714 0.176-1.465 0.27-2.241 0.27-0.548 0-1.081-0.048-1.6-0.138 1.083 3.057 4.224 5.281 7.946 5.343-2.911 2.064-6.579 3.294-10.564 3.294-0.687 0-1.364-0.036-2.029-0.108 3.764 2.183 8.235 3.457 13.039 3.457 15.646 0 24.202-11.724 24.202-21.891 0-0.334-0.008-0.665-0.025-0.995 1.662-1.085 3.104-2.439 4.244-3.982-1.525 0.612-3.165 1.025-4.885 1.211z" />
    </symbol>
    <symbol viewBox="0 0 32 32" id="icon-youtube">
        <path d="M31.6634051,8.8527593 C31.6634051,8.8527593 31.3509198,6.64879843 30.3919217,5.67824658 C29.1757339,4.40441487 27.8125088,4.39809002 27.1873503,4.32353816 C22.7118278,4 15.9983092,4 15.9983092,4 L15.984407,4 C15.984407,4 9.27104501,4 4.79536595,4.32353816 C4.17017613,4.39809002 2.80745205,4.40441487 1.59082583,5.67824658 C0.631890411,6.64879843 0.319843444,8.8527593 0.319843444,8.8527593 C0.319843444,8.8527593 0,11.4409393 0,14.0290881 L0,16.4554834 C0,19.0436008 0.319843444,21.6317495 0.319843444,21.6317495 C0.319843444,21.6317495 0.631890411,23.8357417 1.59082583,24.8062935 C2.80745205,26.0801566 4.40557339,26.0398591 5.11736986,26.1733699 C7.67602348,26.4187241 15.9913894,26.4946536 15.9913894,26.4946536 C15.9913894,26.4946536 22.7118278,26.4845401 27.1873503,26.1610333 C27.8125088,26.0864501 29.1757339,26.0801566 30.3919217,24.8062935 C31.3509198,23.8357417 31.6634051,21.6317495 31.6634051,21.6317495 C31.6634051,21.6317495 31.9827789,19.0436008 31.9827789,16.4554834 L31.9827789,14.0290881 C31.9827789,11.4409393 31.6634051,8.8527593 31.6634051,8.8527593 Z M12.6895342,19.39582 L12.6880626,10.4095186 L21.3299413,14.9183249 L12.6895342,19.39582 Z" id="youtube-Imported-Layers" />
    </symbol>
    <symbol viewBox="0 0 511.999 511.999" id="icon-eye">
      <path d="M508.745,246.041c-4.574-6.257-113.557-153.206-252.748-153.206S7.818,239.784,3.249,246.035
        c-4.332,5.936-4.332,13.987,0,19.923c4.569,6.257,113.557,153.206,252.748,153.206s248.174-146.95,252.748-153.201
        C513.083,260.028,513.083,251.971,508.745,246.041z M255.997,385.406c-102.529,0-191.33-97.533-217.617-129.418
        c26.253-31.913,114.868-129.395,217.617-129.395c102.524,0,191.319,97.516,217.617,129.418
        C447.361,287.923,358.746,385.406,255.997,385.406z"/>
      <path d="M255.997,154.725c-55.842,0-101.275,45.433-101.275,101.275s45.433,101.275,101.275,101.275
        s101.275-45.433,101.275-101.275S311.839,154.725,255.997,154.725z M255.997,323.516c-37.23,0-67.516-30.287-67.516-67.516
        s30.287-67.516,67.516-67.516s67.516,30.287,67.516,67.516S293.227,323.516,255.997,323.516z"/>
    </symbol>
    <symbol viewBox="0 0 512 512" id="icon-email">
        <path d="M464 64H48C21.49 64 0 85.49 0 112v288c0 26.51 21.49 48 48 48h416c26.51 0 48-21.49 48-48V112c0-26.51-21.49-48-48-48zm0 48v40.805c-22.422 18.259-58.168 46.651-134.587 106.49-16.841 13.247-50.201 45.072-73.413 44.701-23.208.375-56.579-31.459-73.413-44.701C106.18 199.465 70.425 171.067 48 152.805V112h416zM48 400V214.398c22.914 18.251 55.409 43.862 104.938 82.646 21.857 17.205 60.134 55.186 103.062 54.955 42.717.231 80.509-37.199 103.053-54.947 49.528-38.783 82.032-64.401 104.947-82.653V400H48z"></path>
    </symbol>
    <symbol viewBox="0 0 640 512" id="icon-user-shield">
        <path d="M622.3 271.1l-115.2-45c-4.1-1.6-12.6-3.7-22.2 0l-115.2 45c-10.7 4.2-17.7 14-17.7 24.9 0 111.6 68.7 188.8 132.9 213.9 9.6 3.7 18 1.6 22.2 0C558.4 489.9 640 420.5 640 296c0-10.9-7-20.7-17.7-24.9zM496 462.4V273.3l95.5 37.3c-5.6 87.1-60.9 135.4-95.5 151.8zM224 256c70.7 0 128-57.3 128-128S294.7 0 224 0 96 57.3 96 128s57.3 128 128 128zm96 40c0-2.5.8-4.8 1.1-7.2-2.5-.1-4.9-.8-7.5-.8h-16.7c-22.2 10.2-46.9 16-72.9 16s-50.6-5.8-72.9-16h-16.7C60.2 288 0 348.2 0 422.4V464c0 26.5 21.5 48 48 48h352c6.8 0 13.3-1.5 19.2-4-54-42.9-99.2-116.7-99.2-212z" class=""></path>
    </symbol>
    <symbol viewBox="0 0 60.123 60.123" id="icon-list">
        <g>
            <path d="M57.124,51.893H16.92c-1.657,0-3-1.343-3-3s1.343-3,3-3h40.203c1.657,0,3,1.343,3,3S58.781,51.893,57.124,51.893z"/>
            <path d="M57.124,33.062H16.92c-1.657,0-3-1.343-3-3s1.343-3,3-3h40.203c1.657,0,3,1.343,3,3   C60.124,31.719,58.781,33.062,57.124,33.062z"/>
            <path d="M57.124,14.231H16.92c-1.657,0-3-1.343-3-3s1.343-3,3-3h40.203c1.657,0,3,1.343,3,3S58.781,14.231,57.124,14.231z"/>
            <circle cx="4.029" cy="11.463" r="4.029"/>
            <circle cx="4.029" cy="30.062" r="4.029"/>
            <circle cx="4.029" cy="48.661" r="4.029"/>
        </g><g></g><g></g><g></g><g></g><g></g><g></g><g></g><g></g><g></g><g></g><g></g><g></g><g></g><g></g><g></g>
    </symbol>
    <symbol viewBox="0 0 486.8 486.8" id="icon-grid">
        <g><g>
            <path d="M140.35,32c0-17.6-14.4-32-32-32h-76.3c-17.6,0-32,14.4-32,32v76.2c0,17.6,14.4,32,32,32h76.2c17.6,0,32-14.4,32-32V32    H140.35z M115.85,108.3c0,4.1-3.4,7.5-7.5,7.5h-76.3c-4.1,0-7.5-3.4-7.5-7.5V32c0-4.1,3.4-7.5,7.5-7.5h76.2c4.1,0,7.5,3.4,7.5,7.5    v76.3H115.85z"/>
            <path d="M140.35,205.3c0-17.6-14.4-32-32-32h-76.3c-17.6,0-32,14.4-32,32v76.2c0,17.6,14.4,32,32,32h76.2c17.6,0,32-14.4,32-32    v-76.2H140.35z M115.85,281.5c0,4.1-3.4,7.5-7.5,7.5h-76.3c-4.1,0-7.5-3.4-7.5-7.5v-76.2c0-4.1,3.4-7.5,7.5-7.5h76.2    c4.1,0,7.5,3.4,7.5,7.5v76.2H115.85z"/>
            <path d="M108.35,346.5h-76.3c-17.6,0-32,14.4-32,32v76.2c0,17.6,14.4,32,32,32h76.2c17.6,0,32-14.4,32-32v-76.2    C140.35,360.9,125.95,346.5,108.35,346.5z M115.85,454.8c0,4.1-3.4,7.5-7.5,7.5h-76.3c-4.1,0-7.5-3.4-7.5-7.5v-76.2    c0-4.1,3.4-7.5,7.5-7.5h76.2c4.1,0,7.5,3.4,7.5,7.5v76.2H115.85z"/>
            <path d="M173.35,281.5c0,17.6,14.4,32,32,32h76.2c17.6,0,32-14.4,32-32v-76.2c0-17.6-14.4-32-32-32h-76.2c-17.6,0-32,14.4-32,32    L173.35,281.5L173.35,281.5z M197.85,205.3c0-4.1,3.4-7.5,7.5-7.5h76.2c4.1,0,7.5,3.4,7.5,7.5v76.2c0,4.1-3.4,7.5-7.5,7.5h-76.2    c-4.1,0-7.5-3.4-7.5-7.5L197.85,205.3L197.85,205.3z"/>
            <path d="M173.35,454.8c0,17.6,14.4,32,32,32h76.2c17.6,0,32-14.4,32-32v-76.2c0-17.6-14.4-32-32-32h-76.2c-17.6,0-32,14.4-32,32    L173.35,454.8L173.35,454.8z M197.85,378.5c0-4.1,3.4-7.5,7.5-7.5h76.2c4.1,0,7.5,3.4,7.5,7.5v76.2c0,4.1-3.4,7.5-7.5,7.5h-76.2    c-4.1,0-7.5-3.4-7.5-7.5L197.85,378.5L197.85,378.5z"/>
            <path d="M346.55,281.5c0,17.6,14.4,32,32,32h76.2c17.6,0,32-14.4,32-32v-76.2c0-17.6-14.4-32-32-32h-76.2c-17.6,0-32,14.4-32,32    L346.55,281.5L346.55,281.5z M371.05,205.3c0-4.1,3.4-7.5,7.5-7.5h76.2c4.1,0,7.5,3.4,7.5,7.5v76.2c0,4.1-3.4,7.5-7.5,7.5h-76.2    c-4.1,0-7.5-3.4-7.5-7.5L371.05,205.3L371.05,205.3z"/>
            <path d="M346.55,454.8c0,17.6,14.4,32,32,32h76.2c17.6,0,32-14.4,32-32v-76.2c0-17.6-14.4-32-32-32h-76.2c-17.6,0-32,14.4-32,32    L346.55,454.8L346.55,454.8z M371.05,378.5c0-4.1,3.4-7.5,7.5-7.5h76.2c4.1,0,7.5,3.4,7.5,7.5v76.2c0,4.1-3.4,7.5-7.5,7.5h-76.2    c-4.1,0-7.5-3.4-7.5-7.5L371.05,378.5L371.05,378.5z"/>
            <path d="M173.35,32v76.2c0,17.6,14.4,32,32,32h76.2c17.6,0,32-14.4,32-32V32c0-17.6-14.4-32-32-32h-76.2    C187.65,0,173.35,14.4,173.35,32z M197.85,32c0-4.1,3.4-7.5,7.5-7.5h76.2c4.1,0,7.5,3.4,7.5,7.5v76.2c0,4.1-3.4,7.5-7.5,7.5h-76.2    c-4.1,0-7.5-3.4-7.5-7.5L197.85,32L197.85,32z"/>
            <path d="M378.55,140.3h76.2c17.6,0,32-14.4,32-32V32c0-17.6-14.4-32-32-32h-76.2c-17.6,0-32,14.4-32,32v76.2    C346.55,125.9,360.95,140.3,378.55,140.3z M371.05,32c0-4.1,3.4-7.5,7.5-7.5h76.2c4.1,0,7.5,3.4,7.5,7.5v76.2    c0,4.1-3.4,7.5-7.5,7.5h-76.2c-4.1,0-7.5-3.4-7.5-7.5L371.05,32L371.05,32z"/>
        </g></g><g></g><g></g><g></g><g></g><g></g><g></g><g></g><g></g><g></g><g></g><g></g><g></g><g></g><g></g><g></g>
    </symbol>
    <symbol viewBox="0 0 256.000000 256.000000" id="icon-close-bar">
        <g transform="translate(0.000000,256.000000) scale(0.100000,-0.100000)" stroke="none">
        <path d="M34 2526 c-38 -38 -44 -76 -18 -116 9 -14 265 -274 568 -577 l551 -553 -551 -553 c-303 -303 -559 -563 -568 -577 -26 -40 -20 -78 18 -116 38 -38 76 -44 116 -18 14 9 274 265 578 568 l552 551 553 -551 c303 -303 563 -559 577 -568 40 -26 78 -20 116 18 38 38 44 76 18 116 -9 14 -265 274 -568 578 l-551 552 551 553 c303 303 559 563 568 577 26 40 20 78 -18 116 -38 38 -76 44 -116 18 -14 -9 -274 -265 -577 -568 l-553 -551 -552 551 c-304 303 -564 559 -578 568 -40 26 -78 20 -116 -18z"></path>
        </g>
    </symbol>
    <symbol viewBox="0 0 448 512" id="icon-arrow-bar">
        <path d="M438.6 278.6c12.5-12.5 12.5-32.8 0-45.3l-160-160c-12.5-12.5-32.8-12.5-45.3 0s-12.5 32.8 0 45.3L338.8 224 32 224c-17.7 0-32 14.3-32 32s14.3 32 32 32l306.7 0L233.4 393.4c-12.5 12.5-12.5 32.8 0 45.3s32.8 12.5 45.3 0l160-160z"></path>
    </symbol>
</svg>
